%TF.GenerationSoftware,KiCad,Pcbnew,(5.99.0-8803-gb07c8110c8)*%
%TF.CreationDate,2021-05-08T13:24:52+01:00*%
%TF.ProjectId,Plate,506c6174-652e-46b6-9963-61645f706362,rev?*%
%TF.SameCoordinates,Original*%
%TF.FileFunction,Profile,NP*%
%FSLAX46Y46*%
G04 Gerber Fmt 4.6, Leading zero omitted, Abs format (unit mm)*
G04 Created by KiCad (PCBNEW (5.99.0-8803-gb07c8110c8)) date 2021-05-08 13:24:52*
%MOMM*%
%LPD*%
G01*
G04 APERTURE LIST*
%TA.AperFunction,Profile*%
%ADD10C,0.100000*%
%TD*%
%TA.AperFunction,Profile*%
%ADD11C,0.120000*%
%TD*%
G04 APERTURE END LIST*
D10*
X134500000Y-68000000D02*
X146000000Y-68000000D01*
X249000000Y-59000000D02*
X154000000Y-59000000D01*
X253000000Y-140000000D02*
G75*
G02*
X249000000Y-144000000I-4000000J0D01*
G01*
X150000000Y-63000000D02*
G75*
G02*
X154000000Y-59000000I4000000J0D01*
G01*
X134500000Y-68000000D02*
X123000000Y-68000000D01*
X20000000Y-59000000D02*
X115000000Y-59000000D01*
X16000000Y-63000000D02*
X16000000Y-140000000D01*
X20000000Y-144000000D02*
X249000000Y-144000000D01*
X253000000Y-140000000D02*
X253000000Y-63000000D01*
X16000000Y-140000000D02*
G75*
G03*
X20000000Y-144000000I4000000J0D01*
G01*
X150000000Y-64000000D02*
G75*
G02*
X146000000Y-68000000I-4000000J0D01*
G01*
X20000000Y-59000000D02*
G75*
G03*
X16000000Y-63000000I0J-4000000D01*
G01*
X150000000Y-64000000D02*
X150000000Y-63000000D01*
X119000000Y-63000000D02*
X119000000Y-64000000D01*
X119000000Y-64000000D02*
G75*
G03*
X123000000Y-68000000I4000000J0D01*
G01*
X119000000Y-63000000D02*
G75*
G03*
X115000000Y-59000000I-4000000J0D01*
G01*
X253000000Y-63000000D02*
G75*
G03*
X249000000Y-59000000I-4000000J0D01*
G01*
D11*
%TO.C,SW36*%
X232000000Y-104000000D02*
X246000000Y-104000000D01*
X246000000Y-104000000D02*
X246000000Y-118000000D01*
X246000000Y-118000000D02*
X232000000Y-118000000D01*
X232000000Y-118000000D02*
X232000000Y-104000000D01*
%TO.C,SW22*%
X194000000Y-85000000D02*
X208000000Y-85000000D01*
X208000000Y-85000000D02*
X208000000Y-99000000D01*
X208000000Y-99000000D02*
X194000000Y-99000000D01*
X194000000Y-99000000D02*
X194000000Y-85000000D01*
%TO.C,SW40*%
X80000000Y-123000000D02*
X94000000Y-123000000D01*
X94000000Y-123000000D02*
X94000000Y-137000000D01*
X94000000Y-137000000D02*
X80000000Y-137000000D01*
X80000000Y-137000000D02*
X80000000Y-123000000D01*
%TO.C,SW41*%
X99000000Y-123000000D02*
X113000000Y-123000000D01*
X113000000Y-123000000D02*
X113000000Y-137000000D01*
X113000000Y-137000000D02*
X99000000Y-137000000D01*
X99000000Y-137000000D02*
X99000000Y-123000000D01*
%TO.C,SW8*%
X156000000Y-66000000D02*
X170000000Y-66000000D01*
X170000000Y-66000000D02*
X170000000Y-80000000D01*
X170000000Y-80000000D02*
X156000000Y-80000000D01*
X156000000Y-80000000D02*
X156000000Y-66000000D01*
%TO.C,SW47*%
X213000000Y-123000000D02*
X227000000Y-123000000D01*
X227000000Y-123000000D02*
X227000000Y-137000000D01*
X227000000Y-137000000D02*
X213000000Y-137000000D01*
X213000000Y-137000000D02*
X213000000Y-123000000D01*
%TO.C,SW38*%
X42000000Y-123000000D02*
X56000000Y-123000000D01*
X56000000Y-123000000D02*
X56000000Y-137000000D01*
X56000000Y-137000000D02*
X42000000Y-137000000D01*
X42000000Y-137000000D02*
X42000000Y-123000000D01*
%TO.C,SW11*%
X213000000Y-66000000D02*
X227000000Y-66000000D01*
X227000000Y-66000000D02*
X227000000Y-80000000D01*
X227000000Y-80000000D02*
X213000000Y-80000000D01*
X213000000Y-80000000D02*
X213000000Y-66000000D01*
%TO.C,SW46*%
X194000000Y-123000000D02*
X208000000Y-123000000D01*
X208000000Y-123000000D02*
X208000000Y-137000000D01*
X208000000Y-137000000D02*
X194000000Y-137000000D01*
X194000000Y-137000000D02*
X194000000Y-123000000D01*
%TO.C,SW44*%
X156000000Y-123000000D02*
X170000000Y-123000000D01*
X170000000Y-123000000D02*
X170000000Y-137000000D01*
X170000000Y-137000000D02*
X156000000Y-137000000D01*
X156000000Y-137000000D02*
X156000000Y-123000000D01*
%TO.C,SW32*%
X156000000Y-104000000D02*
X170000000Y-104000000D01*
X170000000Y-104000000D02*
X170000000Y-118000000D01*
X170000000Y-118000000D02*
X156000000Y-118000000D01*
X156000000Y-118000000D02*
X156000000Y-104000000D01*
%TO.C,SW9*%
X175000000Y-66000000D02*
X189000000Y-66000000D01*
X189000000Y-66000000D02*
X189000000Y-80000000D01*
X189000000Y-80000000D02*
X175000000Y-80000000D01*
X175000000Y-80000000D02*
X175000000Y-66000000D01*
%TO.C,SW12*%
X232000000Y-66000000D02*
X246000000Y-66000000D01*
X246000000Y-66000000D02*
X246000000Y-80000000D01*
X246000000Y-80000000D02*
X232000000Y-80000000D01*
X232000000Y-80000000D02*
X232000000Y-66000000D01*
%TO.C,SW37*%
X23000000Y-123000000D02*
X37000000Y-123000000D01*
X37000000Y-123000000D02*
X37000000Y-137000000D01*
X37000000Y-137000000D02*
X23000000Y-137000000D01*
X23000000Y-137000000D02*
X23000000Y-123000000D01*
%TO.C,SW28*%
X80000000Y-104000000D02*
X94000000Y-104000000D01*
X94000000Y-104000000D02*
X94000000Y-118000000D01*
X94000000Y-118000000D02*
X80000000Y-118000000D01*
X80000000Y-118000000D02*
X80000000Y-104000000D01*
%TO.C,SW27*%
X61000000Y-104000000D02*
X75000000Y-104000000D01*
X75000000Y-104000000D02*
X75000000Y-118000000D01*
X75000000Y-118000000D02*
X61000000Y-118000000D01*
X61000000Y-118000000D02*
X61000000Y-104000000D01*
%TO.C,SW3*%
X61000000Y-66000000D02*
X75000000Y-66000000D01*
X75000000Y-66000000D02*
X75000000Y-80000000D01*
X75000000Y-80000000D02*
X61000000Y-80000000D01*
X61000000Y-80000000D02*
X61000000Y-66000000D01*
%TO.C,SW31*%
X137000000Y-104000000D02*
X151000000Y-104000000D01*
X151000000Y-104000000D02*
X151000000Y-118000000D01*
X151000000Y-118000000D02*
X137000000Y-118000000D01*
X137000000Y-118000000D02*
X137000000Y-104000000D01*
%TO.C,SW43*%
X137000000Y-123000000D02*
X151000000Y-123000000D01*
X151000000Y-123000000D02*
X151000000Y-137000000D01*
X151000000Y-137000000D02*
X137000000Y-137000000D01*
X137000000Y-137000000D02*
X137000000Y-123000000D01*
%TO.C,SW21*%
X175000000Y-85000000D02*
X189000000Y-85000000D01*
X189000000Y-85000000D02*
X189000000Y-99000000D01*
X189000000Y-99000000D02*
X175000000Y-99000000D01*
X175000000Y-99000000D02*
X175000000Y-85000000D01*
%TO.C,SW42*%
X118000000Y-123000000D02*
X132000000Y-123000000D01*
X132000000Y-123000000D02*
X132000000Y-137000000D01*
X132000000Y-137000000D02*
X118000000Y-137000000D01*
X118000000Y-137000000D02*
X118000000Y-123000000D01*
%TO.C,SW1*%
X23000000Y-66000000D02*
X37000000Y-66000000D01*
X37000000Y-66000000D02*
X37000000Y-80000000D01*
X37000000Y-80000000D02*
X23000000Y-80000000D01*
X23000000Y-80000000D02*
X23000000Y-66000000D01*
%TO.C,SW15*%
X61000000Y-85000000D02*
X75000000Y-85000000D01*
X75000000Y-85000000D02*
X75000000Y-99000000D01*
X75000000Y-99000000D02*
X61000000Y-99000000D01*
X61000000Y-99000000D02*
X61000000Y-85000000D01*
%TO.C,SW14*%
X42000000Y-85000000D02*
X56000000Y-85000000D01*
X56000000Y-85000000D02*
X56000000Y-99000000D01*
X56000000Y-99000000D02*
X42000000Y-99000000D01*
X42000000Y-99000000D02*
X42000000Y-85000000D01*
%TO.C,SW35*%
X213000000Y-104000000D02*
X227000000Y-104000000D01*
X227000000Y-104000000D02*
X227000000Y-118000000D01*
X227000000Y-118000000D02*
X213000000Y-118000000D01*
X213000000Y-118000000D02*
X213000000Y-104000000D01*
%TO.C,SW2*%
X42000000Y-66000000D02*
X56000000Y-66000000D01*
X56000000Y-66000000D02*
X56000000Y-80000000D01*
X56000000Y-80000000D02*
X42000000Y-80000000D01*
X42000000Y-80000000D02*
X42000000Y-66000000D01*
%TO.C,SW16*%
X80000000Y-85000000D02*
X94000000Y-85000000D01*
X94000000Y-85000000D02*
X94000000Y-99000000D01*
X94000000Y-99000000D02*
X80000000Y-99000000D01*
X80000000Y-99000000D02*
X80000000Y-85000000D01*
%TO.C,SW5*%
X99000000Y-66000000D02*
X113000000Y-66000000D01*
X113000000Y-66000000D02*
X113000000Y-80000000D01*
X113000000Y-80000000D02*
X99000000Y-80000000D01*
X99000000Y-80000000D02*
X99000000Y-66000000D01*
%TO.C,SW45*%
X175000000Y-123000000D02*
X189000000Y-123000000D01*
X189000000Y-123000000D02*
X189000000Y-137000000D01*
X189000000Y-137000000D02*
X175000000Y-137000000D01*
X175000000Y-137000000D02*
X175000000Y-123000000D01*
%TO.C,SW10*%
X194000000Y-66000000D02*
X208000000Y-66000000D01*
X208000000Y-66000000D02*
X208000000Y-80000000D01*
X208000000Y-80000000D02*
X194000000Y-80000000D01*
X194000000Y-80000000D02*
X194000000Y-66000000D01*
%TO.C,SW29*%
X99000000Y-104000000D02*
X113000000Y-104000000D01*
X113000000Y-104000000D02*
X113000000Y-118000000D01*
X113000000Y-118000000D02*
X99000000Y-118000000D01*
X99000000Y-118000000D02*
X99000000Y-104000000D01*
%TO.C,SW34*%
X194000000Y-104000000D02*
X208000000Y-104000000D01*
X208000000Y-104000000D02*
X208000000Y-118000000D01*
X208000000Y-118000000D02*
X194000000Y-118000000D01*
X194000000Y-118000000D02*
X194000000Y-104000000D01*
%TO.C,SW23*%
X213000000Y-85000000D02*
X227000000Y-85000000D01*
X227000000Y-85000000D02*
X227000000Y-99000000D01*
X227000000Y-99000000D02*
X213000000Y-99000000D01*
X213000000Y-99000000D02*
X213000000Y-85000000D01*
%TO.C,SW26*%
X42000000Y-104000000D02*
X56000000Y-104000000D01*
X56000000Y-104000000D02*
X56000000Y-118000000D01*
X56000000Y-118000000D02*
X42000000Y-118000000D01*
X42000000Y-118000000D02*
X42000000Y-104000000D01*
%TO.C,SW20*%
X156000000Y-85000000D02*
X170000000Y-85000000D01*
X170000000Y-85000000D02*
X170000000Y-99000000D01*
X170000000Y-99000000D02*
X156000000Y-99000000D01*
X156000000Y-99000000D02*
X156000000Y-85000000D01*
%TO.C,SW48*%
X232000000Y-123000000D02*
X246000000Y-123000000D01*
X246000000Y-123000000D02*
X246000000Y-137000000D01*
X246000000Y-137000000D02*
X232000000Y-137000000D01*
X232000000Y-137000000D02*
X232000000Y-123000000D01*
%TO.C,SW24*%
X232000000Y-85000000D02*
X246000000Y-85000000D01*
X246000000Y-85000000D02*
X246000000Y-99000000D01*
X246000000Y-99000000D02*
X232000000Y-99000000D01*
X232000000Y-99000000D02*
X232000000Y-85000000D01*
%TO.C,SW33*%
X175000000Y-104000000D02*
X189000000Y-104000000D01*
X189000000Y-104000000D02*
X189000000Y-118000000D01*
X189000000Y-118000000D02*
X175000000Y-118000000D01*
X175000000Y-118000000D02*
X175000000Y-104000000D01*
%TO.C,SW4*%
X80000000Y-66000000D02*
X94000000Y-66000000D01*
X94000000Y-66000000D02*
X94000000Y-80000000D01*
X94000000Y-80000000D02*
X80000000Y-80000000D01*
X80000000Y-80000000D02*
X80000000Y-66000000D01*
%TO.C,SW13*%
X23000000Y-85000000D02*
X37000000Y-85000000D01*
X37000000Y-85000000D02*
X37000000Y-99000000D01*
X37000000Y-99000000D02*
X23000000Y-99000000D01*
X23000000Y-99000000D02*
X23000000Y-85000000D01*
%TO.C,SW25*%
X23000000Y-104000000D02*
X37000000Y-104000000D01*
X37000000Y-104000000D02*
X37000000Y-118000000D01*
X37000000Y-118000000D02*
X23000000Y-118000000D01*
X23000000Y-118000000D02*
X23000000Y-104000000D01*
%TO.C,SW30*%
X118000000Y-104000000D02*
X132000000Y-104000000D01*
X132000000Y-104000000D02*
X132000000Y-118000000D01*
X132000000Y-118000000D02*
X118000000Y-118000000D01*
X118000000Y-118000000D02*
X118000000Y-104000000D01*
%TO.C,SW17*%
X99000000Y-85000000D02*
X113000000Y-85000000D01*
X113000000Y-85000000D02*
X113000000Y-99000000D01*
X113000000Y-99000000D02*
X99000000Y-99000000D01*
X99000000Y-99000000D02*
X99000000Y-85000000D01*
%TO.C,SW39*%
X61000000Y-123000000D02*
X75000000Y-123000000D01*
X75000000Y-123000000D02*
X75000000Y-137000000D01*
X75000000Y-137000000D02*
X61000000Y-137000000D01*
X61000000Y-137000000D02*
X61000000Y-123000000D01*
%TD*%
M02*
