%TF.GenerationSoftware,KiCad,Pcbnew,(5.99.0-8803-gb07c8110c8)*%
%TF.CreationDate,2021-05-08T13:19:11+01:00*%
%TF.ProjectId,Inflorescent,496e666c-6f72-4657-9363-656e742e6b69,rev?*%
%TF.SameCoordinates,PXf42400PY8954400*%
%TF.FileFunction,Copper,L1,Top*%
%TF.FilePolarity,Positive*%
%FSLAX46Y46*%
G04 Gerber Fmt 4.6, Leading zero omitted, Abs format (unit mm)*
G04 Created by KiCad (PCBNEW (5.99.0-8803-gb07c8110c8)) date 2021-05-08 13:19:11*
%MOMM*%
%LPD*%
G01*
G04 APERTURE LIST*
%TA.AperFunction,ComponentPad*%
%ADD10C,2.286000*%
%TD*%
%TA.AperFunction,ComponentPad*%
%ADD11C,1.879600*%
%TD*%
%TA.AperFunction,ViaPad*%
%ADD12C,0.800000*%
%TD*%
%TA.AperFunction,Conductor*%
%ADD13C,0.250000*%
%TD*%
G04 APERTURE END LIST*
D10*
%TO.P,SW9,1,A*%
%TO.N,Net-(D9-Pad2)*%
X163460000Y65920000D03*
%TO.P,SW9,2,B*%
%TO.N,/COL8*%
X169810000Y68460000D03*
%TD*%
%TO.P,SW11,1,A*%
%TO.N,Net-(D11-Pad2)*%
X201460000Y65920000D03*
%TO.P,SW11,2,B*%
%TO.N,/COL10*%
X207810000Y68460000D03*
%TD*%
%TO.P,SW16,1,A*%
%TO.N,Net-(D16-Pad2)*%
X68460000Y46920000D03*
%TO.P,SW16,2,B*%
%TO.N,/COL3*%
X74810000Y49460000D03*
%TD*%
%TO.P,SW23,1,A*%
%TO.N,Net-(D23-Pad2)*%
X201460000Y46920000D03*
%TO.P,SW23,2,B*%
%TO.N,/COL10*%
X207810000Y49460000D03*
%TD*%
%TO.P,SW31,1,A*%
%TO.N,Net-(D31-Pad2)*%
X125460000Y27920000D03*
%TO.P,SW31,2,B*%
%TO.N,/COL6*%
X131810000Y30460000D03*
%TD*%
%TO.P,SW26,1,A*%
%TO.N,Net-(D26-Pad2)*%
X30460000Y27920000D03*
%TO.P,SW26,2,B*%
%TO.N,/COL1*%
X36810000Y30460000D03*
%TD*%
%TO.P,SW20,1,A*%
%TO.N,Net-(D20-Pad2)*%
X144460000Y46920000D03*
%TO.P,SW20,2,B*%
%TO.N,/COL7*%
X150810000Y49460000D03*
%TD*%
%TO.P,SW22,1,A*%
%TO.N,Net-(D22-Pad2)*%
X182460000Y46920000D03*
%TO.P,SW22,2,B*%
%TO.N,/COL9*%
X188810000Y49460000D03*
%TD*%
%TO.P,SW1,1,A*%
%TO.N,Net-(D1-Pad2)*%
X11460000Y65920000D03*
%TO.P,SW1,2,B*%
%TO.N,/COL0*%
X17810000Y68460000D03*
%TD*%
%TO.P,SW43,1,A*%
%TO.N,Net-(D43-Pad2)*%
X125460000Y8920000D03*
%TO.P,SW43,2,B*%
%TO.N,/COL6*%
X131810000Y11460000D03*
%TD*%
%TO.P,SW13,1,A*%
%TO.N,Net-(D13-Pad2)*%
X11460000Y46920000D03*
%TO.P,SW13,2,B*%
%TO.N,/COL0*%
X17810000Y49460000D03*
%TD*%
%TO.P,SW32,1,A*%
%TO.N,Net-(D32-Pad2)*%
X144460000Y27920000D03*
%TO.P,SW32,2,B*%
%TO.N,/COL7*%
X150810000Y30460000D03*
%TD*%
%TO.P,SW37,1,A*%
%TO.N,Net-(D37-Pad2)*%
X11460000Y8920000D03*
%TO.P,SW37,2,B*%
%TO.N,/COL0*%
X17810000Y11460000D03*
%TD*%
%TO.P,SW25,1,A*%
%TO.N,Net-(D25-Pad2)*%
X11460000Y27920000D03*
%TO.P,SW25,2,B*%
%TO.N,/COL0*%
X17810000Y30460000D03*
%TD*%
%TO.P,SW24,1,A*%
%TO.N,Net-(D24-Pad2)*%
X220460000Y46920000D03*
%TO.P,SW24,2,B*%
%TO.N,/COL11*%
X226810000Y49460000D03*
%TD*%
%TO.P,SW34,1,A*%
%TO.N,Net-(D34-Pad2)*%
X182460000Y27920000D03*
%TO.P,SW34,2,B*%
%TO.N,/COL9*%
X188810000Y30460000D03*
%TD*%
%TO.P,SW2,1,A*%
%TO.N,Net-(D2-Pad2)*%
X30460000Y65920000D03*
%TO.P,SW2,2,B*%
%TO.N,/COL1*%
X36810000Y68460000D03*
%TD*%
%TO.P,SW46,1,A*%
%TO.N,Net-(D46-Pad2)*%
X182460000Y8920000D03*
%TO.P,SW46,2,B*%
%TO.N,/COL9*%
X188810000Y11460000D03*
%TD*%
%TO.P,SW42,1,A*%
%TO.N,Net-(D42-Pad2)*%
X106460000Y8920000D03*
%TO.P,SW42,2,B*%
%TO.N,/COL5*%
X112810000Y11460000D03*
%TD*%
%TO.P,SW15,1,A*%
%TO.N,Net-(D15-Pad2)*%
X49460000Y46920000D03*
%TO.P,SW15,2,B*%
%TO.N,/COL2*%
X55810000Y49460000D03*
%TD*%
%TO.P,SW4,1,A*%
%TO.N,Net-(D4-Pad2)*%
X68460000Y65920000D03*
%TO.P,SW4,2,B*%
%TO.N,/COL3*%
X74810000Y68460000D03*
%TD*%
%TO.P,SW12,1,A*%
%TO.N,Net-(D12-Pad2)*%
X220460000Y65920000D03*
%TO.P,SW12,2,B*%
%TO.N,/COL11*%
X226810000Y68460000D03*
%TD*%
%TO.P,SW47,1,A*%
%TO.N,Net-(D47-Pad2)*%
X201460000Y8920000D03*
%TO.P,SW47,2,B*%
%TO.N,/COL10*%
X207810000Y11460000D03*
%TD*%
%TO.P,SW33,1,A*%
%TO.N,Net-(D33-Pad2)*%
X163460000Y27920000D03*
%TO.P,SW33,2,B*%
%TO.N,/COL8*%
X169810000Y30460000D03*
%TD*%
%TO.P,SW36,1,A*%
%TO.N,Net-(D36-Pad2)*%
X220460000Y27920000D03*
%TO.P,SW36,2,B*%
%TO.N,/COL11*%
X226810000Y30460000D03*
%TD*%
%TO.P,SW29,1,A*%
%TO.N,Net-(D29-Pad2)*%
X87460000Y27920000D03*
%TO.P,SW29,2,B*%
%TO.N,/COL4*%
X93810000Y30460000D03*
%TD*%
%TO.P,SW5,1,A*%
%TO.N,Net-(D5-Pad2)*%
X87460000Y65920000D03*
%TO.P,SW5,2,B*%
%TO.N,/COL4*%
X93810000Y68460000D03*
%TD*%
%TO.P,SW44,1,A*%
%TO.N,Net-(D44-Pad2)*%
X144460000Y8920000D03*
%TO.P,SW44,2,B*%
%TO.N,/COL7*%
X150810000Y11460000D03*
%TD*%
%TO.P,SW48,1,A*%
%TO.N,Net-(D48-Pad2)*%
X220460000Y8920000D03*
%TO.P,SW48,2,B*%
%TO.N,/COL11*%
X226810000Y11460000D03*
%TD*%
%TO.P,SW21,1,A*%
%TO.N,Net-(D21-Pad2)*%
X163460000Y46920000D03*
%TO.P,SW21,2,B*%
%TO.N,/COL8*%
X169810000Y49460000D03*
%TD*%
%TO.P,SW8,1,A*%
%TO.N,Net-(D8-Pad2)*%
X144460000Y65920000D03*
%TO.P,SW8,2,B*%
%TO.N,/COL7*%
X150810000Y68460000D03*
%TD*%
%TO.P,SW28,1,A*%
%TO.N,Net-(D28-Pad2)*%
X68460000Y27920000D03*
%TO.P,SW28,2,B*%
%TO.N,/COL3*%
X74810000Y30460000D03*
%TD*%
%TO.P,SW38,1,A*%
%TO.N,Net-(D38-Pad2)*%
X30460000Y8920000D03*
%TO.P,SW38,2,B*%
%TO.N,/COL1*%
X36810000Y11460000D03*
%TD*%
%TO.P,SW3,1,A*%
%TO.N,Net-(D3-Pad2)*%
X49460000Y65920000D03*
%TO.P,SW3,2,B*%
%TO.N,/COL2*%
X55810000Y68460000D03*
%TD*%
%TO.P,SW40,1,A*%
%TO.N,Net-(D40-Pad2)*%
X68460000Y8920000D03*
%TO.P,SW40,2,B*%
%TO.N,/COL3*%
X74810000Y11460000D03*
%TD*%
%TO.P,SW27,1,A*%
%TO.N,Net-(D27-Pad2)*%
X49460000Y27920000D03*
%TO.P,SW27,2,B*%
%TO.N,/COL2*%
X55810000Y30460000D03*
%TD*%
%TO.P,SW14,1,A*%
%TO.N,Net-(D14-Pad2)*%
X30460000Y46920000D03*
%TO.P,SW14,2,B*%
%TO.N,/COL1*%
X36810000Y49460000D03*
%TD*%
%TO.P,SW30,1,A*%
%TO.N,Net-(D30-Pad2)*%
X106460000Y27920000D03*
%TO.P,SW30,2,B*%
%TO.N,/COL5*%
X112810000Y30460000D03*
%TD*%
%TO.P,SW45,1,A*%
%TO.N,Net-(D45-Pad2)*%
X163460000Y8920000D03*
%TO.P,SW45,2,B*%
%TO.N,/COL8*%
X169810000Y11460000D03*
%TD*%
D11*
%TO.P,U1,1,TX0*%
%TO.N,unconnected-(U1-Pad1)*%
X110880000Y71200000D03*
%TO.P,U1,2,RXI*%
%TO.N,unconnected-(U1-Pad2)*%
X110880000Y68660000D03*
%TO.P,U1,3,GND*%
%TO.N,unconnected-(U1-Pad3)*%
X110880000Y66120000D03*
%TO.P,U1,4,GND*%
%TO.N,unconnected-(U1-Pad4)*%
X110880000Y63580000D03*
%TO.P,U1,5,D2*%
%TO.N,/ROW1*%
X110880000Y61040000D03*
%TO.P,U1,6,D3*%
%TO.N,/COL0*%
X110880000Y58500000D03*
%TO.P,U1,7,D4*%
%TO.N,/COL1*%
X110880000Y55960000D03*
%TO.P,U1,8,D5*%
%TO.N,/COL2*%
X110880000Y53420000D03*
%TO.P,U1,9,D6*%
%TO.N,/COL3*%
X110880000Y50880000D03*
%TO.P,U1,10,D7*%
%TO.N,/COL4*%
X110880000Y48340000D03*
%TO.P,U1,11,D8*%
%TO.N,/COL5*%
X110880000Y45800000D03*
%TO.P,U1,12,D9*%
%TO.N,/ROW3*%
X110880000Y43260000D03*
%TO.P,U1,13,D10*%
%TO.N,/ROW2*%
X126120000Y43260000D03*
%TO.P,U1,14,D16*%
%TO.N,/COL6*%
X126120000Y45800000D03*
%TO.P,U1,15,D14*%
%TO.N,/COL7*%
X126120000Y48340000D03*
%TO.P,U1,16,D15*%
%TO.N,/COL8*%
X126120000Y50880000D03*
%TO.P,U1,17,A0*%
%TO.N,/COL9*%
X126120000Y53420000D03*
%TO.P,U1,18,A1*%
%TO.N,/COL10*%
X126120000Y55960000D03*
%TO.P,U1,19,A2*%
%TO.N,/COL11*%
X126120000Y58500000D03*
%TO.P,U1,20,A3*%
%TO.N,/ROW0*%
X126120000Y61040000D03*
%TO.P,U1,21,VCC*%
%TO.N,unconnected-(U1-Pad21)*%
X126120000Y63580000D03*
%TO.P,U1,22,RST*%
%TO.N,unconnected-(U1-Pad22)*%
X126120000Y66120000D03*
%TO.P,U1,23,GND*%
%TO.N,unconnected-(U1-Pad23)*%
X126120000Y68660000D03*
%TO.P,U1,24,RAW*%
%TO.N,unconnected-(U1-Pad24)*%
X126120000Y71200000D03*
%TD*%
D10*
%TO.P,SW10,1,A*%
%TO.N,Net-(D10-Pad2)*%
X182460000Y65920000D03*
%TO.P,SW10,2,B*%
%TO.N,/COL9*%
X188810000Y68460000D03*
%TD*%
%TO.P,SW39,1,A*%
%TO.N,Net-(D39-Pad2)*%
X49460000Y8920000D03*
%TO.P,SW39,2,B*%
%TO.N,/COL2*%
X55810000Y11460000D03*
%TD*%
%TO.P,SW35,1,A*%
%TO.N,Net-(D35-Pad2)*%
X201460000Y27920000D03*
%TO.P,SW35,2,B*%
%TO.N,/COL10*%
X207810000Y30460000D03*
%TD*%
%TO.P,SW17,1,A*%
%TO.N,Net-(D17-Pad2)*%
X87460000Y46920000D03*
%TO.P,SW17,2,B*%
%TO.N,/COL4*%
X93810000Y49460000D03*
%TD*%
%TO.P,SW41,1,A*%
%TO.N,Net-(D41-Pad2)*%
X87460000Y8920000D03*
%TO.P,SW41,2,B*%
%TO.N,/COL4*%
X93810000Y11460000D03*
%TD*%
D12*
%TO.N,/ROW3*%
X118000000Y25100000D03*
%TD*%
D13*
%TO.N,/ROW3*%
X117970000Y44030000D02*
X110880000Y44030000D01*
X118000000Y25100000D02*
X118000000Y44000000D01*
X118000000Y44000000D02*
X117970000Y44030000D01*
%TO.N,/COL0*%
X17757500Y11468750D02*
X17757500Y16586250D01*
X17747500Y66418750D02*
X17747500Y68556250D01*
X19047500Y66418750D02*
X17747500Y66418750D01*
X17735000Y28308750D02*
X17735000Y30446250D01*
X19047500Y54718750D02*
X19047500Y66418750D01*
X17770000Y49578750D02*
X17770000Y54696250D01*
X17757500Y30468750D02*
X17757500Y35586250D01*
X17780000Y35608750D02*
X19035000Y35608750D01*
X19035000Y16608750D02*
X19035000Y28308750D01*
X17780000Y16608750D02*
X19035000Y16608750D01*
X19035000Y35608750D02*
X19035000Y47308750D01*
X17792500Y54718750D02*
X19047500Y54718750D01*
X19035000Y47308750D02*
X17735000Y47308750D01*
X17735000Y47308750D02*
X17735000Y49446250D01*
X19035000Y28308750D02*
X17735000Y28308750D01*
%TO.N,/COL1*%
X38047500Y35718750D02*
X38047500Y47418750D01*
X38047500Y16718750D02*
X38047500Y28418750D01*
X36747500Y66418750D02*
X36747500Y68556250D01*
X36792500Y16718750D02*
X38047500Y16718750D01*
X38047500Y28418750D02*
X36747500Y28418750D01*
X36792500Y35718750D02*
X38047500Y35718750D01*
X38047500Y54718750D02*
X38047500Y66418750D01*
X36747500Y28418750D02*
X36747500Y30556250D01*
X36792500Y54718750D02*
X38047500Y54718750D01*
X36770000Y11578750D02*
X36770000Y16696250D01*
X36747500Y47418750D02*
X36747500Y49556250D01*
X38047500Y47418750D02*
X36747500Y47418750D01*
X36770000Y30578750D02*
X36770000Y35696250D01*
X36770000Y49578750D02*
X36770000Y54696250D01*
X38047500Y66418750D02*
X36747500Y66418750D01*
%TO.N,/COL2*%
X57042500Y28418750D02*
X55742500Y28418750D01*
X55765000Y11578750D02*
X55765000Y16696250D01*
X55742500Y47418750D02*
X55742500Y49556250D01*
X55765000Y30578750D02*
X55765000Y35696250D01*
X55787500Y35718750D02*
X57042500Y35718750D01*
X57042500Y66418750D02*
X55742500Y66418750D01*
X57042500Y54718750D02*
X57042500Y66418750D01*
X55787500Y54718750D02*
X57042500Y54718750D01*
X55742500Y28418750D02*
X55742500Y30556250D01*
X57042500Y16718750D02*
X57042500Y28418750D01*
X57042500Y35718750D02*
X57042500Y47418750D01*
X55742500Y66418750D02*
X55742500Y68556250D01*
X55765000Y49578750D02*
X55765000Y54696250D01*
X55787500Y16718750D02*
X57042500Y16718750D01*
X57042500Y47418750D02*
X55742500Y47418750D01*
%TO.N,/COL3*%
X76042500Y47418750D02*
X74742500Y47418750D01*
X76042500Y35718750D02*
X76042500Y47418750D01*
X76042500Y66418750D02*
X74742500Y66418750D01*
X74787500Y54718750D02*
X76042500Y54718750D01*
X74787500Y35718750D02*
X76042500Y35718750D01*
X74742500Y47418750D02*
X74742500Y49556250D01*
X74765000Y49578750D02*
X74765000Y54696250D01*
X76042500Y16718750D02*
X76042500Y28418750D01*
X74742500Y66418750D02*
X74742500Y68556250D01*
X74742500Y28418750D02*
X74742500Y30556250D01*
X76042500Y28418750D02*
X74742500Y28418750D01*
X74765000Y11578750D02*
X74765000Y16696250D01*
X76042500Y54718750D02*
X76042500Y66418750D01*
X74765000Y30578750D02*
X74765000Y35696250D01*
X74787500Y16718750D02*
X76042500Y16718750D01*
%TO.N,/COL4*%
X95042500Y54718750D02*
X95042500Y66418750D01*
X95042500Y47418750D02*
X93742500Y47418750D01*
X93787500Y16718750D02*
X95042500Y16718750D01*
X93787500Y35718750D02*
X95042500Y35718750D01*
X93742500Y66418750D02*
X93742500Y68556250D01*
X95042500Y16718750D02*
X95042500Y28418750D01*
X95042500Y35718750D02*
X95042500Y47418750D01*
X93765000Y30578750D02*
X93765000Y35696250D01*
X93765000Y49578750D02*
X93765000Y54696250D01*
X93765000Y11578750D02*
X93765000Y16696250D01*
X93742500Y28418750D02*
X93742500Y30556250D01*
X95042500Y28418750D02*
X93742500Y28418750D01*
X93787500Y54718750D02*
X95042500Y54718750D01*
X93742500Y47418750D02*
X93742500Y49556250D01*
X95042500Y66418750D02*
X93742500Y66418750D01*
%TO.N,/COL5*%
X112787500Y16718750D02*
X114042500Y16718750D01*
X114042500Y16718750D02*
X114042500Y28418750D01*
X112765000Y11578750D02*
X112765000Y16696250D01*
X114042500Y28418750D02*
X112742500Y28418750D01*
X112742500Y28418750D02*
X112742500Y30556250D01*
%TO.N,/COL6*%
X131765000Y11578750D02*
X131765000Y16696250D01*
X133042500Y28418750D02*
X131742500Y28418750D01*
X133042500Y16718750D02*
X133042500Y28418750D01*
X131742500Y28418750D02*
X131742500Y30556250D01*
X131787500Y16718750D02*
X133042500Y16718750D01*
%TO.N,/COL7*%
X150787500Y16718750D02*
X152042500Y16718750D01*
X150787500Y35718750D02*
X152042500Y35718750D01*
X150765000Y49578750D02*
X150765000Y54696250D01*
X150742500Y66418750D02*
X150742500Y68556250D01*
X152042500Y54718750D02*
X152042500Y66418750D01*
X152042500Y66418750D02*
X150742500Y66418750D01*
X150765000Y30578750D02*
X150765000Y35696250D01*
X150765000Y11578750D02*
X150765000Y16696250D01*
X150787500Y54718750D02*
X152042500Y54718750D01*
X152042500Y35718750D02*
X152042500Y47418750D01*
X152042500Y47418750D02*
X150742500Y47418750D01*
X152042500Y28418750D02*
X150742500Y28418750D01*
X150742500Y47418750D02*
X150742500Y49556250D01*
X150742500Y28418750D02*
X150742500Y30556250D01*
X152042500Y16718750D02*
X152042500Y28418750D01*
%TO.N,/COL8*%
X169765000Y11578750D02*
X169765000Y16696250D01*
X171042500Y28418750D02*
X169742500Y28418750D01*
X169787500Y54718750D02*
X171042500Y54718750D01*
X169742500Y28418750D02*
X169742500Y30556250D01*
X171042500Y47418750D02*
X169742500Y47418750D01*
X171042500Y16718750D02*
X171042500Y28418750D01*
X171042500Y35718750D02*
X171042500Y47418750D01*
X169742500Y66418750D02*
X169742500Y68556250D01*
X169765000Y30578750D02*
X169765000Y35696250D01*
X169787500Y35718750D02*
X171042500Y35718750D01*
X169742500Y47418750D02*
X169742500Y49556250D01*
X171042500Y66418750D02*
X169742500Y66418750D01*
X171042500Y54718750D02*
X171042500Y66418750D01*
X169765000Y49578750D02*
X169765000Y54696250D01*
X169787500Y16718750D02*
X171042500Y16718750D01*
%TO.N,/COL9*%
X188787500Y35718750D02*
X190042500Y35718750D01*
X188742500Y28418750D02*
X188742500Y30556250D01*
X190042500Y28418750D02*
X188742500Y28418750D01*
X190042500Y16718750D02*
X190042500Y28418750D01*
X188742500Y66418750D02*
X188742500Y68556250D01*
X188787500Y16718750D02*
X190042500Y16718750D01*
X190042500Y35718750D02*
X190042500Y47418750D01*
X190042500Y66418750D02*
X188742500Y66418750D01*
X190042500Y54718750D02*
X190042500Y66418750D01*
X188765000Y49578750D02*
X188765000Y54696250D01*
X190042500Y47418750D02*
X188742500Y47418750D01*
X188742500Y47418750D02*
X188742500Y49556250D01*
X188765000Y11578750D02*
X188765000Y16696250D01*
X188765000Y30578750D02*
X188765000Y35696250D01*
X188787500Y54718750D02*
X190042500Y54718750D01*
%TO.N,/COL10*%
X207787500Y54718750D02*
X209042500Y54718750D01*
X207742500Y47418750D02*
X207742500Y49556250D01*
X207765000Y49578750D02*
X207765000Y54696250D01*
X209042500Y66418750D02*
X207742500Y66418750D01*
X209042500Y16718750D02*
X209042500Y28418750D01*
X207787500Y16718750D02*
X209042500Y16718750D01*
X209042500Y54718750D02*
X209042500Y66418750D01*
X207765000Y11578750D02*
X207765000Y16696250D01*
X207787500Y35718750D02*
X209042500Y35718750D01*
X209042500Y35718750D02*
X209042500Y47418750D01*
X207742500Y66418750D02*
X207742500Y68556250D01*
X207765000Y30578750D02*
X207765000Y35696250D01*
X209042500Y28418750D02*
X207742500Y28418750D01*
X207742500Y28418750D02*
X207742500Y30556250D01*
X209042500Y47418750D02*
X207742500Y47418750D01*
%TO.N,/COL11*%
X226810000Y16678750D02*
X228065000Y16678750D01*
X226810000Y35678750D02*
X228065000Y35678750D01*
X228065000Y16678750D02*
X228065000Y28378750D01*
X226787500Y11538750D02*
X226787500Y16656250D01*
X226765000Y66378750D02*
X226765000Y68516250D01*
X226765000Y28378750D02*
X226765000Y30516250D01*
X226787500Y30538750D02*
X226787500Y35656250D01*
X228065000Y47378750D02*
X226765000Y47378750D01*
X226787500Y16656250D02*
X226810000Y16678750D01*
X228065000Y54678750D02*
X228065000Y66378750D01*
X228065000Y28378750D02*
X226765000Y28378750D01*
X226810000Y54678750D02*
X228065000Y54678750D01*
X226787500Y49538750D02*
X226787500Y54656250D01*
X226765000Y47378750D02*
X226765000Y49516250D01*
X228065000Y35678750D02*
X228065000Y47378750D01*
X228065000Y66378750D02*
X226765000Y66378750D01*
%TD*%
M02*
