%TF.GenerationSoftware,KiCad,Pcbnew,(5.99.0-8803-gb07c8110c8)*%
%TF.CreationDate,2021-05-08T13:19:11+01:00*%
%TF.ProjectId,Inflorescent,496e666c-6f72-4657-9363-656e742e6b69,rev?*%
%TF.SameCoordinates,PXf42400PY8954400*%
%TF.FileFunction,Soldermask,Bot*%
%TF.FilePolarity,Negative*%
%FSLAX46Y46*%
G04 Gerber Fmt 4.6, Leading zero omitted, Abs format (unit mm)*
G04 Created by KiCad (PCBNEW (5.99.0-8803-gb07c8110c8)) date 2021-05-08 13:19:11*
%MOMM*%
%LPD*%
G01*
G04 APERTURE LIST*
%ADD10C,3.000000*%
%ADD11C,3.987800*%
%ADD12R,2.550000X2.500000*%
%ADD13C,2.286000*%
%ADD14C,3.200000*%
%ADD15C,2.082800*%
%ADD16R,1.200000X0.900000*%
G04 APERTURE END LIST*
D10*
%TO.C,SW9*%
X162190000Y73540000D03*
D11*
X166000000Y71000000D03*
D10*
X168540000Y76080000D03*
D12*
X172290000Y76080000D03*
D13*
X163460000Y65920000D03*
X169810000Y68460000D03*
D12*
X158440000Y73540000D03*
%TD*%
D10*
%TO.C,SW11*%
X206540000Y76080000D03*
D11*
X204000000Y71000000D03*
D10*
X200190000Y73540000D03*
D13*
X201460000Y65920000D03*
D12*
X210290000Y76080000D03*
X196440000Y73540000D03*
D13*
X207810000Y68460000D03*
%TD*%
D10*
%TO.C,SW16*%
X67190000Y54540000D03*
D11*
X71000000Y52000000D03*
D10*
X73540000Y57080000D03*
D13*
X68460000Y46920000D03*
D12*
X77290000Y57080000D03*
X63440000Y54540000D03*
D13*
X74810000Y49460000D03*
%TD*%
D14*
%TO.C,H4*%
X4000000Y4000000D03*
%TD*%
D11*
%TO.C,SW23*%
X204000000Y52000000D03*
D10*
X206540000Y57080000D03*
X200190000Y54540000D03*
D12*
X210290000Y57080000D03*
D13*
X201460000Y46920000D03*
D12*
X196440000Y54540000D03*
D13*
X207810000Y49460000D03*
%TD*%
D10*
%TO.C,SW31*%
X130540000Y38080000D03*
X124190000Y35540000D03*
D11*
X128000000Y33000000D03*
D13*
X125460000Y27920000D03*
D12*
X134290000Y38080000D03*
X120440000Y35540000D03*
D13*
X131810000Y30460000D03*
%TD*%
D11*
%TO.C,SW26*%
X33000000Y33000000D03*
D10*
X29190000Y35540000D03*
X35540000Y38080000D03*
D12*
X39290000Y38080000D03*
D13*
X30460000Y27920000D03*
D12*
X25440000Y35540000D03*
D13*
X36810000Y30460000D03*
%TD*%
D11*
%TO.C,SW20*%
X147000000Y52000000D03*
D10*
X143190000Y54540000D03*
X149540000Y57080000D03*
D13*
X144460000Y46920000D03*
D12*
X153290000Y57080000D03*
X139440000Y54540000D03*
D13*
X150810000Y49460000D03*
%TD*%
D10*
%TO.C,SW22*%
X187540000Y57080000D03*
D11*
X185000000Y52000000D03*
D10*
X181190000Y54540000D03*
D12*
X191290000Y57080000D03*
D13*
X182460000Y46920000D03*
D12*
X177440000Y54540000D03*
D13*
X188810000Y49460000D03*
%TD*%
D11*
%TO.C,SW1*%
X14000000Y71000000D03*
D10*
X10190000Y73540000D03*
X16540000Y76080000D03*
D13*
X11460000Y65920000D03*
D12*
X20290000Y76080000D03*
X6440000Y73540000D03*
D13*
X17810000Y68460000D03*
%TD*%
D10*
%TO.C,SW43*%
X130540000Y19080000D03*
X124190000Y16540000D03*
D11*
X128000000Y14000000D03*
D12*
X134290000Y19080000D03*
D13*
X125460000Y8920000D03*
X131810000Y11460000D03*
D12*
X120440000Y16540000D03*
%TD*%
D14*
%TO.C,H1*%
X233000000Y4000000D03*
%TD*%
D11*
%TO.C,SW13*%
X14000000Y52000000D03*
D10*
X16540000Y57080000D03*
X10190000Y54540000D03*
D13*
X11460000Y46920000D03*
D12*
X20290000Y57080000D03*
D13*
X17810000Y49460000D03*
D12*
X6440000Y54540000D03*
%TD*%
D10*
%TO.C,SW32*%
X149540000Y38080000D03*
D11*
X147000000Y33000000D03*
D10*
X143190000Y35540000D03*
D12*
X153290000Y38080000D03*
D13*
X144460000Y27920000D03*
X150810000Y30460000D03*
D12*
X139440000Y35540000D03*
%TD*%
D11*
%TO.C,SW37*%
X14000000Y14000000D03*
D10*
X16540000Y19080000D03*
X10190000Y16540000D03*
D13*
X11460000Y8920000D03*
D12*
X20290000Y19080000D03*
X6440000Y16540000D03*
D13*
X17810000Y11460000D03*
%TD*%
D11*
%TO.C,SW25*%
X14000000Y33000000D03*
D10*
X16540000Y38080000D03*
X10190000Y35540000D03*
D13*
X11460000Y27920000D03*
D12*
X20290000Y38080000D03*
D13*
X17810000Y30460000D03*
D12*
X6440000Y35540000D03*
%TD*%
D10*
%TO.C,SW24*%
X219190000Y54540000D03*
D11*
X223000000Y52000000D03*
D10*
X225540000Y57080000D03*
D12*
X229290000Y57080000D03*
D13*
X220460000Y46920000D03*
D12*
X215440000Y54540000D03*
D13*
X226810000Y49460000D03*
%TD*%
D11*
%TO.C,SW34*%
X185000000Y33000000D03*
D10*
X187540000Y38080000D03*
X181190000Y35540000D03*
D13*
X182460000Y27920000D03*
D12*
X191290000Y38080000D03*
X177440000Y35540000D03*
D13*
X188810000Y30460000D03*
%TD*%
D14*
%TO.C,H2*%
X156500000Y4000000D03*
%TD*%
D10*
%TO.C,SW2*%
X35540000Y76080000D03*
X29190000Y73540000D03*
D11*
X33000000Y71000000D03*
D12*
X39290000Y76080000D03*
D13*
X30460000Y65920000D03*
X36810000Y68460000D03*
D12*
X25440000Y73540000D03*
%TD*%
D10*
%TO.C,SW46*%
X181190000Y16540000D03*
X187540000Y19080000D03*
D11*
X185000000Y14000000D03*
D13*
X182460000Y8920000D03*
D12*
X191290000Y19080000D03*
D13*
X188810000Y11460000D03*
D12*
X177440000Y16540000D03*
%TD*%
D10*
%TO.C,SW42*%
X111540000Y19080000D03*
D11*
X109000000Y14000000D03*
D10*
X105190000Y16540000D03*
D12*
X115290000Y19080000D03*
D13*
X106460000Y8920000D03*
D12*
X101440000Y16540000D03*
D13*
X112810000Y11460000D03*
%TD*%
D11*
%TO.C,SW15*%
X52000000Y52000000D03*
D10*
X54540000Y57080000D03*
X48190000Y54540000D03*
D13*
X49460000Y46920000D03*
D12*
X58290000Y57080000D03*
X44440000Y54540000D03*
D13*
X55810000Y49460000D03*
%TD*%
D10*
%TO.C,SW4*%
X73540000Y76080000D03*
X67190000Y73540000D03*
D11*
X71000000Y71000000D03*
D13*
X68460000Y65920000D03*
D12*
X77290000Y76080000D03*
X63440000Y73540000D03*
D13*
X74810000Y68460000D03*
%TD*%
D14*
%TO.C,H5*%
X233000000Y81000000D03*
%TD*%
D10*
%TO.C,SW12*%
X219190000Y73540000D03*
D11*
X223000000Y71000000D03*
D10*
X225540000Y76080000D03*
D12*
X229290000Y76080000D03*
D13*
X220460000Y65920000D03*
X226810000Y68460000D03*
D12*
X215440000Y73540000D03*
%TD*%
D10*
%TO.C,SW47*%
X200190000Y16540000D03*
D11*
X204000000Y14000000D03*
D10*
X206540000Y19080000D03*
D12*
X210290000Y19080000D03*
D13*
X201460000Y8920000D03*
D12*
X196440000Y16540000D03*
D13*
X207810000Y11460000D03*
%TD*%
D10*
%TO.C,SW33*%
X168540000Y38080000D03*
D11*
X166000000Y33000000D03*
D10*
X162190000Y35540000D03*
D12*
X172290000Y38080000D03*
D13*
X163460000Y27920000D03*
D12*
X158440000Y35540000D03*
D13*
X169810000Y30460000D03*
%TD*%
D10*
%TO.C,SW36*%
X219190000Y35540000D03*
D11*
X223000000Y33000000D03*
D10*
X225540000Y38080000D03*
D13*
X220460000Y27920000D03*
D12*
X229290000Y38080000D03*
X215440000Y35540000D03*
D13*
X226810000Y30460000D03*
%TD*%
D14*
%TO.C,H6*%
X138000000Y81000000D03*
%TD*%
D10*
%TO.C,SW29*%
X86190000Y35540000D03*
X92540000Y38080000D03*
D11*
X90000000Y33000000D03*
D13*
X87460000Y27920000D03*
D12*
X96290000Y38080000D03*
D13*
X93810000Y30460000D03*
D12*
X82440000Y35540000D03*
%TD*%
D14*
%TO.C,H3*%
X80500000Y4000000D03*
%TD*%
D10*
%TO.C,SW5*%
X92540000Y76080000D03*
X86190000Y73540000D03*
D11*
X90000000Y71000000D03*
D12*
X96290000Y76080000D03*
D13*
X87460000Y65920000D03*
D12*
X82440000Y73540000D03*
D13*
X93810000Y68460000D03*
%TD*%
D11*
%TO.C,SW44*%
X147000000Y14000000D03*
D10*
X143190000Y16540000D03*
X149540000Y19080000D03*
D13*
X144460000Y8920000D03*
D12*
X153290000Y19080000D03*
D13*
X150810000Y11460000D03*
D12*
X139440000Y16540000D03*
%TD*%
D14*
%TO.C,H7*%
X99000000Y81000000D03*
%TD*%
D10*
%TO.C,SW48*%
X225540000Y19080000D03*
X219190000Y16540000D03*
D11*
X223000000Y14000000D03*
D13*
X220460000Y8920000D03*
D12*
X229290000Y19080000D03*
D13*
X226810000Y11460000D03*
D12*
X215440000Y16540000D03*
%TD*%
D10*
%TO.C,SW21*%
X168540000Y57080000D03*
D11*
X166000000Y52000000D03*
D10*
X162190000Y54540000D03*
D13*
X163460000Y46920000D03*
D12*
X172290000Y57080000D03*
D13*
X169810000Y49460000D03*
D12*
X158440000Y54540000D03*
%TD*%
D10*
%TO.C,SW8*%
X143190000Y73540000D03*
X149540000Y76080000D03*
D11*
X147000000Y71000000D03*
D13*
X144460000Y65920000D03*
D12*
X153290000Y76080000D03*
X139440000Y73540000D03*
D13*
X150810000Y68460000D03*
%TD*%
D11*
%TO.C,SW28*%
X71000000Y33000000D03*
D10*
X67190000Y35540000D03*
X73540000Y38080000D03*
D13*
X68460000Y27920000D03*
D12*
X77290000Y38080000D03*
X63440000Y35540000D03*
D13*
X74810000Y30460000D03*
%TD*%
D10*
%TO.C,SW38*%
X29190000Y16540000D03*
D11*
X33000000Y14000000D03*
D10*
X35540000Y19080000D03*
D12*
X39290000Y19080000D03*
D13*
X30460000Y8920000D03*
X36810000Y11460000D03*
D12*
X25440000Y16540000D03*
%TD*%
D10*
%TO.C,SW3*%
X54540000Y76080000D03*
D11*
X52000000Y71000000D03*
D10*
X48190000Y73540000D03*
D13*
X49460000Y65920000D03*
D12*
X58290000Y76080000D03*
X44440000Y73540000D03*
D13*
X55810000Y68460000D03*
%TD*%
D10*
%TO.C,SW40*%
X67190000Y16540000D03*
D11*
X71000000Y14000000D03*
D10*
X73540000Y19080000D03*
D13*
X68460000Y8920000D03*
D12*
X77290000Y19080000D03*
D13*
X74810000Y11460000D03*
D12*
X63440000Y16540000D03*
%TD*%
D11*
%TO.C,SW27*%
X52000000Y33000000D03*
D10*
X54540000Y38080000D03*
X48190000Y35540000D03*
D13*
X49460000Y27920000D03*
D12*
X58290000Y38080000D03*
X44440000Y35540000D03*
D13*
X55810000Y30460000D03*
%TD*%
D11*
%TO.C,SW14*%
X33000000Y52000000D03*
D10*
X29190000Y54540000D03*
X35540000Y57080000D03*
D13*
X30460000Y46920000D03*
D12*
X39290000Y57080000D03*
D13*
X36810000Y49460000D03*
D12*
X25440000Y54540000D03*
%TD*%
D11*
%TO.C,SW30*%
X109000000Y33000000D03*
D10*
X105190000Y35540000D03*
X111540000Y38080000D03*
D13*
X106460000Y27920000D03*
D12*
X115290000Y38080000D03*
X101440000Y35540000D03*
D13*
X112810000Y30460000D03*
%TD*%
D14*
%TO.C,H8*%
X4000000Y81000000D03*
%TD*%
D11*
%TO.C,SW45*%
X166000000Y14000000D03*
D10*
X168540000Y19080000D03*
X162190000Y16540000D03*
D13*
X163460000Y8920000D03*
D12*
X172290000Y19080000D03*
X158440000Y16540000D03*
D13*
X169810000Y11460000D03*
%TD*%
D15*
%TO.C,U1*%
X110880000Y71200000D03*
X110880000Y68660000D03*
X110880000Y66120000D03*
X110880000Y63580000D03*
X110880000Y61040000D03*
X110880000Y58500000D03*
X110880000Y55960000D03*
X110880000Y53420000D03*
X110880000Y50880000D03*
X110880000Y48340000D03*
X110880000Y45800000D03*
X110880000Y43260000D03*
X126120000Y43260000D03*
X126120000Y45800000D03*
X126120000Y48340000D03*
X126120000Y50880000D03*
X126120000Y53420000D03*
X126120000Y55960000D03*
X126120000Y58500000D03*
X126120000Y61040000D03*
X126120000Y63580000D03*
X126120000Y66120000D03*
X126120000Y68660000D03*
X126120000Y71200000D03*
%TD*%
D10*
%TO.C,SW10*%
X187540000Y76080000D03*
X181190000Y73540000D03*
D11*
X185000000Y71000000D03*
D12*
X191290000Y76080000D03*
D13*
X182460000Y65920000D03*
X188810000Y68460000D03*
D12*
X177440000Y73540000D03*
%TD*%
D10*
%TO.C,SW39*%
X54540000Y19080000D03*
X48190000Y16540000D03*
D11*
X52000000Y14000000D03*
D13*
X49460000Y8920000D03*
D12*
X58290000Y19080000D03*
X44440000Y16540000D03*
D13*
X55810000Y11460000D03*
%TD*%
D11*
%TO.C,SW35*%
X204000000Y33000000D03*
D10*
X206540000Y38080000D03*
X200190000Y35540000D03*
D12*
X210290000Y38080000D03*
D13*
X201460000Y27920000D03*
X207810000Y30460000D03*
D12*
X196440000Y35540000D03*
%TD*%
D10*
%TO.C,SW17*%
X92540000Y57080000D03*
X86190000Y54540000D03*
D11*
X90000000Y52000000D03*
D13*
X87460000Y46920000D03*
D12*
X96290000Y57080000D03*
D13*
X93810000Y49460000D03*
D12*
X82440000Y54540000D03*
%TD*%
D10*
%TO.C,SW41*%
X86190000Y16540000D03*
X92540000Y19080000D03*
D11*
X90000000Y14000000D03*
D13*
X87460000Y8920000D03*
D12*
X96290000Y19080000D03*
D13*
X93810000Y11460000D03*
D12*
X82440000Y16540000D03*
%TD*%
D16*
%TO.C,D46*%
X193000000Y10350000D03*
X193000000Y13650000D03*
%TD*%
%TO.C,D32*%
X155000000Y29350000D03*
X155000000Y32650000D03*
%TD*%
%TO.C,D22*%
X193000000Y48350000D03*
X193000000Y51650000D03*
%TD*%
%TO.C,D37*%
X22000000Y10350000D03*
X22000000Y13650000D03*
%TD*%
%TO.C,D40*%
X79000000Y10350000D03*
X79000000Y13650000D03*
%TD*%
%TO.C,D3*%
X60000000Y67350000D03*
X60000000Y70650000D03*
%TD*%
%TO.C,D13*%
X22000000Y48350000D03*
X22000000Y51650000D03*
%TD*%
%TO.C,D31*%
X136000000Y29500000D03*
X136000000Y32800000D03*
%TD*%
%TO.C,D48*%
X231000000Y10350000D03*
X231000000Y13650000D03*
%TD*%
%TO.C,D8*%
X155000000Y67350000D03*
X155000000Y70650000D03*
%TD*%
%TO.C,D20*%
X155000000Y48350000D03*
X155000000Y51650000D03*
%TD*%
%TO.C,D21*%
X174000000Y48350000D03*
X174000000Y51650000D03*
%TD*%
%TO.C,D38*%
X41000000Y10350000D03*
X41000000Y13650000D03*
%TD*%
%TO.C,D33*%
X174000000Y29350000D03*
X174000000Y32650000D03*
%TD*%
%TO.C,D4*%
X79000000Y67350000D03*
X79000000Y70650000D03*
%TD*%
%TO.C,D41*%
X98000000Y10350000D03*
X98000000Y13650000D03*
%TD*%
%TO.C,D27*%
X60000000Y29350000D03*
X60000000Y32650000D03*
%TD*%
%TO.C,D15*%
X60000000Y48350000D03*
X60000000Y51650000D03*
%TD*%
%TO.C,D14*%
X41000000Y48350000D03*
X41000000Y51650000D03*
%TD*%
%TO.C,D26*%
X41000000Y29350000D03*
X41000000Y32650000D03*
%TD*%
%TO.C,D30*%
X117000000Y29350000D03*
X117000000Y32650000D03*
%TD*%
%TO.C,D36*%
X231000000Y29350000D03*
X231000000Y32650000D03*
%TD*%
%TO.C,D12*%
X231000000Y67350000D03*
X231000000Y70650000D03*
%TD*%
%TO.C,D1*%
X22000000Y67350000D03*
X22000000Y70650000D03*
%TD*%
%TO.C,D45*%
X174000000Y10350000D03*
X174000000Y13650000D03*
%TD*%
%TO.C,D16*%
X79000000Y48350000D03*
X79000000Y51650000D03*
%TD*%
%TO.C,D2*%
X41000000Y67350000D03*
X41000000Y70650000D03*
%TD*%
%TO.C,D43*%
X136000000Y10350000D03*
X136000000Y13650000D03*
%TD*%
%TO.C,D35*%
X212000000Y29350000D03*
X212000000Y32650000D03*
%TD*%
%TO.C,D11*%
X212000000Y67350000D03*
X212000000Y70650000D03*
%TD*%
%TO.C,D24*%
X231000000Y48350000D03*
X231000000Y51650000D03*
%TD*%
%TO.C,D28*%
X79000000Y29350000D03*
X79000000Y32650000D03*
%TD*%
%TO.C,D29*%
X98000000Y29350000D03*
X98000000Y32650000D03*
%TD*%
%TO.C,D9*%
X174000000Y67350000D03*
X174000000Y70650000D03*
%TD*%
%TO.C,D23*%
X212000000Y48350000D03*
X212000000Y51650000D03*
%TD*%
%TO.C,D17*%
X98000000Y48350000D03*
X98000000Y51650000D03*
%TD*%
%TO.C,D39*%
X60000000Y10350000D03*
X60000000Y13650000D03*
%TD*%
%TO.C,D25*%
X22000000Y29350000D03*
X22000000Y32650000D03*
%TD*%
%TO.C,D34*%
X193000000Y29350000D03*
X193000000Y32650000D03*
%TD*%
%TO.C,D10*%
X193000000Y67350000D03*
X193000000Y70650000D03*
%TD*%
%TO.C,D42*%
X117000000Y10350000D03*
X117000000Y13650000D03*
%TD*%
%TO.C,D5*%
X98000000Y67350000D03*
X98000000Y70650000D03*
%TD*%
%TO.C,D47*%
X212000000Y10350000D03*
X212000000Y13650000D03*
%TD*%
%TO.C,D44*%
X155000000Y10350000D03*
X155000000Y13650000D03*
%TD*%
M02*
