M48
; DRILL file {KiCad (5.99.0-8803-gb07c8110c8)} date 05/08/21 02:23:16
; FORMAT={-:-/ absolute / inch / decimal}
; #@! TF.CreationDate,2021-05-08T02:23:16+01:00
; #@! TF.GenerationSoftware,Kicad,Pcbnew,(5.99.0-8803-gb07c8110c8)
FMAT,2
INCH
T1C0.0157
T2C0.0400
T3C0.0590
T4C0.1181
T5C0.1260
T6C0.1570
%
G90
G05
T1
X4.6457Y0.9882
T2
X4.3654Y2.8031
X4.3654Y2.7031
X4.3654Y2.6031
X4.3654Y2.5031
X4.3654Y2.4031
X4.3654Y2.3031
X4.3654Y2.2031
X4.3654Y2.1031
X4.3654Y2.0031
X4.3654Y1.9031
X4.3654Y1.8031
X4.3654Y1.7031
X4.9654Y2.8031
X4.9654Y2.7031
X4.9654Y2.6031
X4.9654Y2.5031
X4.9654Y2.4031
X4.9654Y2.3031
X4.9654Y2.2031
X4.9654Y2.1031
X4.9654Y2.0031
X4.9654Y1.9031
X4.9654Y1.8031
X4.9654Y1.7031
T3
X0.4512Y2.5953
X0.4512Y1.8472
X0.4512Y1.0992
X0.4512Y0.3512
X0.7012Y2.6953
X0.7012Y1.9472
X0.7012Y1.1992
X0.7012Y0.4512
X1.1992Y2.5953
X1.1992Y1.8472
X1.1992Y1.0992
X1.1992Y0.3512
X1.4492Y2.6953
X1.4492Y1.9472
X1.4492Y1.1992
X1.4492Y0.4512
X1.9472Y2.5953
X1.9472Y1.8472
X1.9472Y1.0992
X1.9472Y0.3512
X2.1972Y2.6953
X2.1972Y1.9472
X2.1972Y1.1992
X2.1972Y0.4512
X2.6953Y2.5953
X2.6953Y1.8472
X2.6953Y1.0992
X2.6953Y0.3512
X2.9453Y2.6953
X2.9453Y1.9472
X2.9453Y1.1992
X2.9453Y0.4512
X3.4433Y2.5953
X3.4433Y1.8472
X3.4433Y1.0992
X3.4433Y0.3512
X3.6933Y2.6953
X3.6933Y1.9472
X3.6933Y1.1992
X3.6933Y0.4512
X4.1913Y1.0992
X4.1913Y0.3512
X4.4413Y1.1992
X4.4413Y0.4512
X4.9394Y1.0992
X4.9394Y0.3512
X5.1894Y1.1992
X5.1894Y0.4512
X5.6874Y2.5953
X5.6874Y1.8472
X5.6874Y1.0992
X5.6874Y0.3512
X5.9374Y2.6953
X5.9374Y1.9472
X5.9374Y1.1992
X5.9374Y0.4512
X6.4354Y2.5953
X6.4354Y1.8472
X6.4354Y1.0992
X6.4354Y0.3512
X6.6854Y2.6953
X6.6854Y1.9472
X6.6854Y1.1992
X6.6854Y0.4512
X7.1835Y2.5953
X7.1835Y1.8472
X7.1835Y1.0992
X7.1835Y0.3512
X7.4335Y2.6953
X7.4335Y1.9472
X7.4335Y1.1992
X7.4335Y0.4512
X7.9315Y2.5953
X7.9315Y1.8472
X7.9315Y1.0992
X7.9315Y0.3512
X8.1815Y2.6953
X8.1815Y1.9472
X8.1815Y1.1992
X8.1815Y0.4512
X8.6795Y2.5953
X8.6795Y1.8472
X8.6795Y1.0992
X8.6795Y0.3512
X8.9295Y2.6953
X8.9295Y1.9472
X8.9295Y1.1992
X8.9295Y0.4512
T4
X0.4012Y2.8953
X0.4012Y2.1472
X0.4012Y1.3992
X0.4012Y0.6512
X0.6512Y2.9953
X0.6512Y2.2472
X0.6512Y1.4992
X0.6512Y0.7512
X1.1492Y2.8953
X1.1492Y2.1472
X1.1492Y1.3992
X1.1492Y0.6512
X1.3992Y2.9953
X1.3992Y2.2472
X1.3992Y1.4992
X1.3992Y0.7512
X1.8972Y2.8953
X1.8972Y2.1472
X1.8972Y1.3992
X1.8972Y0.6512
X2.1472Y2.9953
X2.1472Y2.2472
X2.1472Y1.4992
X2.1472Y0.7512
X2.6453Y2.8953
X2.6453Y2.1472
X2.6453Y1.3992
X2.6453Y0.6512
X2.8953Y2.9953
X2.8953Y2.2472
X2.8953Y1.4992
X2.8953Y0.7512
X3.3933Y2.8953
X3.3933Y2.1472
X3.3933Y1.3992
X3.3933Y0.6512
X3.6433Y2.9953
X3.6433Y2.2472
X3.6433Y1.4992
X3.6433Y0.7512
X4.1413Y1.3992
X4.1413Y0.6512
X4.3913Y1.4992
X4.3913Y0.7512
X4.8894Y1.3992
X4.8894Y0.6512
X5.1394Y1.4992
X5.1394Y0.7512
X5.6374Y2.8953
X5.6374Y2.1472
X5.6374Y1.3992
X5.6374Y0.6512
X5.8874Y2.9953
X5.8874Y2.2472
X5.8874Y1.4992
X5.8874Y0.7512
X6.3854Y2.8953
X6.3854Y2.1472
X6.3854Y1.3992
X6.3854Y0.6512
X6.6354Y2.9953
X6.6354Y2.2472
X6.6354Y1.4992
X6.6354Y0.7512
X7.1335Y2.8953
X7.1335Y2.1472
X7.1335Y1.3992
X7.1335Y0.6512
X7.3835Y2.9953
X7.3835Y2.2472
X7.3835Y1.4992
X7.3835Y0.7512
X7.8815Y2.8953
X7.8815Y2.1472
X7.8815Y1.3992
X7.8815Y0.6512
X8.1315Y2.9953
X8.1315Y2.2472
X8.1315Y1.4992
X8.1315Y0.7512
X8.6295Y2.8953
X8.6295Y2.1472
X8.6295Y1.3992
X8.6295Y0.6512
X8.8795Y2.9953
X8.8795Y2.2472
X8.8795Y1.4992
X8.8795Y0.7512
T5
X0.1575Y3.189
X0.1575Y0.1575
X3.1693Y0.1575
X3.8976Y3.189
X5.4331Y3.189
X6.1614Y0.1575
X9.1732Y3.189
X9.1732Y0.1575
T6
X0.5512Y2.7953
X0.5512Y2.0472
X0.5512Y1.2992
X0.5512Y0.5512
X1.2992Y2.7953
X1.2992Y2.0472
X1.2992Y1.2992
X1.2992Y0.5512
X2.0472Y2.7953
X2.0472Y2.0472
X2.0472Y1.2992
X2.0472Y0.5512
X2.7953Y2.7953
X2.7953Y2.0472
X2.7953Y1.2992
X2.7953Y0.5512
X3.5433Y2.7953
X3.5433Y2.0472
X3.5433Y1.2992
X3.5433Y0.5512
X4.2913Y1.2992
X4.2913Y0.5512
X5.0394Y1.2992
X5.0394Y0.5512
X5.7874Y2.7953
X5.7874Y2.0472
X5.7874Y1.2992
X5.7874Y0.5512
X6.5354Y2.7953
X6.5354Y2.0472
X6.5354Y1.2992
X6.5354Y0.5512
X7.2835Y2.7953
X7.2835Y2.0472
X7.2835Y1.2992
X7.2835Y0.5512
X8.0315Y2.7953
X8.0315Y2.0472
X8.0315Y1.2992
X8.0315Y0.5512
X8.7795Y2.7953
X8.7795Y2.0472
X8.7795Y1.2992
X8.7795Y0.5512
T0
M30
