M48
; DRILL file {KiCad (5.99.0-8803-gb07c8110c8)} date 05/08/21 13:20:29
; FORMAT={-:-/ absolute / metric / decimal}
; #@! TF.CreationDate,2021-05-08T13:20:29+01:00
; #@! TF.GenerationSoftware,Kicad,Pcbnew,(5.99.0-8803-gb07c8110c8)
; #@! TF.FileFunction,NonPlated,1,2,NPTH
FMAT,2
METRIC
T1C3.000
T2C3.200
T3C3.988
%
G90
G05
T1
X26.19Y-70.46
X26.19Y-89.46
X26.19Y-108.46
X26.19Y-127.46
X32.54Y-67.92
X32.54Y-86.92
X32.54Y-105.92
X32.54Y-124.92
X45.19Y-70.46
X45.19Y-89.46
X45.19Y-108.46
X45.19Y-127.46
X51.54Y-67.92
X51.54Y-86.92
X51.54Y-105.92
X51.54Y-124.92
X64.19Y-70.46
X64.19Y-89.46
X64.19Y-108.46
X64.19Y-127.46
X70.54Y-67.92
X70.54Y-86.92
X70.54Y-105.92
X70.54Y-124.92
X83.19Y-70.46
X83.19Y-89.46
X83.19Y-108.46
X83.19Y-127.46
X89.54Y-67.92
X89.54Y-86.92
X89.54Y-105.92
X89.54Y-124.92
X102.19Y-70.46
X102.19Y-89.46
X102.19Y-108.46
X102.19Y-127.46
X108.54Y-67.92
X108.54Y-86.92
X108.54Y-105.92
X108.54Y-124.92
X121.19Y-108.46
X121.19Y-127.46
X127.54Y-105.92
X127.54Y-124.92
X140.19Y-108.46
X140.19Y-127.46
X146.54Y-105.92
X146.54Y-124.92
X159.19Y-70.46
X159.19Y-89.46
X159.19Y-108.46
X159.19Y-127.46
X165.54Y-67.92
X165.54Y-86.92
X165.54Y-105.92
X165.54Y-124.92
X178.19Y-70.46
X178.19Y-89.46
X178.19Y-108.46
X178.19Y-127.46
X184.54Y-67.92
X184.54Y-86.92
X184.54Y-105.92
X184.54Y-124.92
X197.19Y-70.46
X197.19Y-89.46
X197.19Y-108.46
X197.19Y-127.46
X203.54Y-67.92
X203.54Y-86.92
X203.54Y-105.92
X203.54Y-124.92
X216.19Y-70.46
X216.19Y-89.46
X216.19Y-108.46
X216.19Y-127.46
X222.54Y-67.92
X222.54Y-86.92
X222.54Y-105.92
X222.54Y-124.92
X235.19Y-70.46
X235.19Y-89.46
X235.19Y-108.46
X235.19Y-127.46
X241.54Y-67.92
X241.54Y-86.92
X241.54Y-105.92
X241.54Y-124.92
T2
X20.0Y-63.0
X20.0Y-140.0
X96.5Y-140.0
X115.0Y-63.0
X154.0Y-63.0
X172.5Y-140.0
X249.0Y-63.0
X249.0Y-140.0
T3
X30.0Y-73.0
X30.0Y-92.0
X30.0Y-111.0
X30.0Y-130.0
X49.0Y-73.0
X49.0Y-92.0
X49.0Y-111.0
X49.0Y-130.0
X68.0Y-73.0
X68.0Y-92.0
X68.0Y-111.0
X68.0Y-130.0
X87.0Y-73.0
X87.0Y-92.0
X87.0Y-111.0
X87.0Y-130.0
X106.0Y-73.0
X106.0Y-92.0
X106.0Y-111.0
X106.0Y-130.0
X125.0Y-111.0
X125.0Y-130.0
X144.0Y-111.0
X144.0Y-130.0
X163.0Y-73.0
X163.0Y-92.0
X163.0Y-111.0
X163.0Y-130.0
X182.0Y-73.0
X182.0Y-92.0
X182.0Y-111.0
X182.0Y-130.0
X201.0Y-73.0
X201.0Y-92.0
X201.0Y-111.0
X201.0Y-130.0
X220.0Y-73.0
X220.0Y-92.0
X220.0Y-111.0
X220.0Y-130.0
X239.0Y-73.0
X239.0Y-92.0
X239.0Y-111.0
X239.0Y-130.0
T0
M30
