M48
; DRILL file {KiCad (5.99.0-8803-gb07c8110c8)} date 05/08/21 13:20:29
; FORMAT={-:-/ absolute / metric / decimal}
; #@! TF.CreationDate,2021-05-08T13:20:29+01:00
; #@! TF.GenerationSoftware,Kicad,Pcbnew,(5.99.0-8803-gb07c8110c8)
; #@! TF.FileFunction,Plated,1,2,PTH
FMAT,2
METRIC
T1C0.400
T2C1.016
T3C1.499
%
G90
G05
T1
X134.0Y-118.9
T2
X126.88Y-72.8
X126.88Y-75.34
X126.88Y-77.88
X126.88Y-80.42
X126.88Y-82.96
X126.88Y-85.5
X126.88Y-88.04
X126.88Y-90.58
X126.88Y-93.12
X126.88Y-95.66
X126.88Y-98.2
X126.88Y-100.74
X142.12Y-72.8
X142.12Y-75.34
X142.12Y-77.88
X142.12Y-80.42
X142.12Y-82.96
X142.12Y-85.5
X142.12Y-88.04
X142.12Y-90.58
X142.12Y-93.12
X142.12Y-95.66
X142.12Y-98.2
X142.12Y-100.74
T3
X27.46Y-78.08
X27.46Y-97.08
X27.46Y-116.08
X27.46Y-135.08
X33.81Y-75.54
X33.81Y-94.54
X33.81Y-113.54
X33.81Y-132.54
X46.46Y-78.08
X46.46Y-97.08
X46.46Y-116.08
X46.46Y-135.08
X52.81Y-75.54
X52.81Y-94.54
X52.81Y-113.54
X52.81Y-132.54
X65.46Y-78.08
X65.46Y-97.08
X65.46Y-116.08
X65.46Y-135.08
X71.81Y-75.54
X71.81Y-94.54
X71.81Y-113.54
X71.81Y-132.54
X84.46Y-78.08
X84.46Y-97.08
X84.46Y-116.08
X84.46Y-135.08
X90.81Y-75.54
X90.81Y-94.54
X90.81Y-113.54
X90.81Y-132.54
X103.46Y-78.08
X103.46Y-97.08
X103.46Y-116.08
X103.46Y-135.08
X109.81Y-75.54
X109.81Y-94.54
X109.81Y-113.54
X109.81Y-132.54
X122.46Y-116.08
X122.46Y-135.08
X128.81Y-113.54
X128.81Y-132.54
X141.46Y-116.08
X141.46Y-135.08
X147.81Y-113.54
X147.81Y-132.54
X160.46Y-78.08
X160.46Y-97.08
X160.46Y-116.08
X160.46Y-135.08
X166.81Y-75.54
X166.81Y-94.54
X166.81Y-113.54
X166.81Y-132.54
X179.46Y-78.08
X179.46Y-97.08
X179.46Y-116.08
X179.46Y-135.08
X185.81Y-75.54
X185.81Y-94.54
X185.81Y-113.54
X185.81Y-132.54
X198.46Y-78.08
X198.46Y-97.08
X198.46Y-116.08
X198.46Y-135.08
X204.81Y-75.54
X204.81Y-94.54
X204.81Y-113.54
X204.81Y-132.54
X217.46Y-78.08
X217.46Y-97.08
X217.46Y-116.08
X217.46Y-135.08
X223.81Y-75.54
X223.81Y-94.54
X223.81Y-113.54
X223.81Y-132.54
X236.46Y-78.08
X236.46Y-97.08
X236.46Y-116.08
X236.46Y-135.08
X242.81Y-75.54
X242.81Y-94.54
X242.81Y-113.54
X242.81Y-132.54
T0
M30
