%TF.GenerationSoftware,KiCad,Pcbnew,(5.99.0-8803-gb07c8110c8)*%
%TF.CreationDate,2021-05-08T13:19:11+01:00*%
%TF.ProjectId,Inflorescent,496e666c-6f72-4657-9363-656e742e6b69,rev?*%
%TF.SameCoordinates,PXf42400PY8954400*%
%TF.FileFunction,Profile,NP*%
%FSLAX46Y46*%
G04 Gerber Fmt 4.6, Leading zero omitted, Abs format (unit mm)*
G04 Created by KiCad (PCBNEW (5.99.0-8803-gb07c8110c8)) date 2021-05-08 13:19:11*
%MOMM*%
%LPD*%
G01*
G04 APERTURE LIST*
%TA.AperFunction,Profile*%
%ADD10C,0.100000*%
%TD*%
G04 APERTURE END LIST*
D10*
X4000000Y85000000D02*
G75*
G03*
X0Y81000000I0J-4000000D01*
G01*
X112750000Y70000000D02*
G75*
G03*
X113250000Y69500000I500000J0D01*
G01*
X103000000Y81000000D02*
X103000000Y80000000D01*
X103000000Y81000000D02*
G75*
G03*
X99000000Y85000000I-4000000J0D01*
G01*
X124250000Y75500000D02*
X124250000Y70000000D01*
X124750000Y76000000D02*
G75*
G03*
X124250000Y75500000I0J-500000D01*
G01*
X4000000Y85000000D02*
X99000000Y85000000D01*
X112750000Y75500000D02*
X112750000Y70000000D01*
X113250000Y69500000D02*
X123750000Y69500000D01*
X0Y81000000D02*
X0Y4000000D01*
X130000000Y76000000D02*
X124750000Y76000000D01*
X112750000Y75500000D02*
G75*
G03*
X112250000Y76000000I-500000J0D01*
G01*
X134000000Y80000000D02*
G75*
G02*
X130000000Y76000000I-4000000J0D01*
G01*
X233000000Y85000000D02*
G75*
G02*
X237000000Y81000000I0J-4000000D01*
G01*
X237000000Y4000000D02*
X237000000Y81000000D01*
X103000000Y80000000D02*
G75*
G03*
X107000000Y76000000I4000000J0D01*
G01*
X0Y4000000D02*
G75*
G03*
X4000000Y0I4000000J0D01*
G01*
X4000000Y0D02*
X233000000Y0D01*
X134000000Y81000000D02*
G75*
G02*
X138000000Y85000000I4000000J0D01*
G01*
X237000000Y4000000D02*
G75*
G02*
X233000000Y0I-4000000J0D01*
G01*
X233000000Y85000000D02*
X138000000Y85000000D01*
X123750000Y69500000D02*
G75*
G03*
X124250000Y70000000I0J500000D01*
G01*
X112250000Y76000000D02*
X107000000Y76000000D01*
X134000000Y80000000D02*
X134000000Y81000000D01*
M02*
