%TF.GenerationSoftware,KiCad,Pcbnew,(5.99.0-8803-gb07c8110c8)*%
%TF.CreationDate,2021-05-08T13:19:11+01:00*%
%TF.ProjectId,Inflorescent,496e666c-6f72-4657-9363-656e742e6b69,rev?*%
%TF.SameCoordinates,PXf42400PY8954400*%
%TF.FileFunction,Paste,Bot*%
%TF.FilePolarity,Positive*%
%FSLAX46Y46*%
G04 Gerber Fmt 4.6, Leading zero omitted, Abs format (unit mm)*
G04 Created by KiCad (PCBNEW (5.99.0-8803-gb07c8110c8)) date 2021-05-08 13:19:11*
%MOMM*%
%LPD*%
G01*
G04 APERTURE LIST*
%ADD10R,2.550000X2.500000*%
%ADD11R,1.200000X0.900000*%
G04 APERTURE END LIST*
D10*
%TO.C,SW9*%
X172290000Y76080000D03*
X158440000Y73540000D03*
%TD*%
%TO.C,SW11*%
X210290000Y76080000D03*
X196440000Y73540000D03*
%TD*%
%TO.C,SW16*%
X77290000Y57080000D03*
X63440000Y54540000D03*
%TD*%
%TO.C,SW23*%
X210290000Y57080000D03*
X196440000Y54540000D03*
%TD*%
%TO.C,SW31*%
X134290000Y38080000D03*
X120440000Y35540000D03*
%TD*%
%TO.C,SW26*%
X39290000Y38080000D03*
X25440000Y35540000D03*
%TD*%
%TO.C,SW20*%
X153290000Y57080000D03*
X139440000Y54540000D03*
%TD*%
%TO.C,SW22*%
X191290000Y57080000D03*
X177440000Y54540000D03*
%TD*%
%TO.C,SW1*%
X20290000Y76080000D03*
X6440000Y73540000D03*
%TD*%
%TO.C,SW43*%
X134290000Y19080000D03*
X120440000Y16540000D03*
%TD*%
%TO.C,SW13*%
X20290000Y57080000D03*
X6440000Y54540000D03*
%TD*%
%TO.C,SW32*%
X153290000Y38080000D03*
X139440000Y35540000D03*
%TD*%
%TO.C,SW37*%
X20290000Y19080000D03*
X6440000Y16540000D03*
%TD*%
%TO.C,SW25*%
X20290000Y38080000D03*
X6440000Y35540000D03*
%TD*%
%TO.C,SW24*%
X229290000Y57080000D03*
X215440000Y54540000D03*
%TD*%
%TO.C,SW34*%
X191290000Y38080000D03*
X177440000Y35540000D03*
%TD*%
%TO.C,SW2*%
X39290000Y76080000D03*
X25440000Y73540000D03*
%TD*%
%TO.C,SW46*%
X191290000Y19080000D03*
X177440000Y16540000D03*
%TD*%
%TO.C,SW42*%
X115290000Y19080000D03*
X101440000Y16540000D03*
%TD*%
%TO.C,SW15*%
X58290000Y57080000D03*
X44440000Y54540000D03*
%TD*%
%TO.C,SW4*%
X77290000Y76080000D03*
X63440000Y73540000D03*
%TD*%
%TO.C,SW12*%
X229290000Y76080000D03*
X215440000Y73540000D03*
%TD*%
%TO.C,SW47*%
X210290000Y19080000D03*
X196440000Y16540000D03*
%TD*%
%TO.C,SW33*%
X172290000Y38080000D03*
X158440000Y35540000D03*
%TD*%
%TO.C,SW36*%
X229290000Y38080000D03*
X215440000Y35540000D03*
%TD*%
%TO.C,SW29*%
X96290000Y38080000D03*
X82440000Y35540000D03*
%TD*%
%TO.C,SW5*%
X96290000Y76080000D03*
X82440000Y73540000D03*
%TD*%
%TO.C,SW44*%
X153290000Y19080000D03*
X139440000Y16540000D03*
%TD*%
%TO.C,SW48*%
X229290000Y19080000D03*
X215440000Y16540000D03*
%TD*%
%TO.C,SW21*%
X172290000Y57080000D03*
X158440000Y54540000D03*
%TD*%
%TO.C,SW8*%
X153290000Y76080000D03*
X139440000Y73540000D03*
%TD*%
%TO.C,SW28*%
X77290000Y38080000D03*
X63440000Y35540000D03*
%TD*%
%TO.C,SW38*%
X39290000Y19080000D03*
X25440000Y16540000D03*
%TD*%
%TO.C,SW3*%
X58290000Y76080000D03*
X44440000Y73540000D03*
%TD*%
%TO.C,SW40*%
X77290000Y19080000D03*
X63440000Y16540000D03*
%TD*%
%TO.C,SW27*%
X58290000Y38080000D03*
X44440000Y35540000D03*
%TD*%
%TO.C,SW14*%
X39290000Y57080000D03*
X25440000Y54540000D03*
%TD*%
%TO.C,SW30*%
X115290000Y38080000D03*
X101440000Y35540000D03*
%TD*%
%TO.C,SW45*%
X172290000Y19080000D03*
X158440000Y16540000D03*
%TD*%
%TO.C,SW10*%
X191290000Y76080000D03*
X177440000Y73540000D03*
%TD*%
%TO.C,SW39*%
X58290000Y19080000D03*
X44440000Y16540000D03*
%TD*%
%TO.C,SW35*%
X210290000Y38080000D03*
X196440000Y35540000D03*
%TD*%
%TO.C,SW17*%
X96290000Y57080000D03*
X82440000Y54540000D03*
%TD*%
%TO.C,SW41*%
X96290000Y19080000D03*
X82440000Y16540000D03*
%TD*%
D11*
%TO.C,D46*%
X193000000Y10350000D03*
X193000000Y13650000D03*
%TD*%
%TO.C,D32*%
X155000000Y29350000D03*
X155000000Y32650000D03*
%TD*%
%TO.C,D22*%
X193000000Y48350000D03*
X193000000Y51650000D03*
%TD*%
%TO.C,D37*%
X22000000Y10350000D03*
X22000000Y13650000D03*
%TD*%
%TO.C,D40*%
X79000000Y10350000D03*
X79000000Y13650000D03*
%TD*%
%TO.C,D3*%
X60000000Y67350000D03*
X60000000Y70650000D03*
%TD*%
%TO.C,D13*%
X22000000Y48350000D03*
X22000000Y51650000D03*
%TD*%
%TO.C,D31*%
X136000000Y29500000D03*
X136000000Y32800000D03*
%TD*%
%TO.C,D48*%
X231000000Y10350000D03*
X231000000Y13650000D03*
%TD*%
%TO.C,D8*%
X155000000Y67350000D03*
X155000000Y70650000D03*
%TD*%
%TO.C,D20*%
X155000000Y48350000D03*
X155000000Y51650000D03*
%TD*%
%TO.C,D21*%
X174000000Y48350000D03*
X174000000Y51650000D03*
%TD*%
%TO.C,D38*%
X41000000Y10350000D03*
X41000000Y13650000D03*
%TD*%
%TO.C,D33*%
X174000000Y29350000D03*
X174000000Y32650000D03*
%TD*%
%TO.C,D4*%
X79000000Y67350000D03*
X79000000Y70650000D03*
%TD*%
%TO.C,D41*%
X98000000Y10350000D03*
X98000000Y13650000D03*
%TD*%
%TO.C,D27*%
X60000000Y29350000D03*
X60000000Y32650000D03*
%TD*%
%TO.C,D15*%
X60000000Y48350000D03*
X60000000Y51650000D03*
%TD*%
%TO.C,D14*%
X41000000Y48350000D03*
X41000000Y51650000D03*
%TD*%
%TO.C,D26*%
X41000000Y29350000D03*
X41000000Y32650000D03*
%TD*%
%TO.C,D30*%
X117000000Y29350000D03*
X117000000Y32650000D03*
%TD*%
%TO.C,D36*%
X231000000Y29350000D03*
X231000000Y32650000D03*
%TD*%
%TO.C,D12*%
X231000000Y67350000D03*
X231000000Y70650000D03*
%TD*%
%TO.C,D1*%
X22000000Y67350000D03*
X22000000Y70650000D03*
%TD*%
%TO.C,D45*%
X174000000Y10350000D03*
X174000000Y13650000D03*
%TD*%
%TO.C,D16*%
X79000000Y48350000D03*
X79000000Y51650000D03*
%TD*%
%TO.C,D2*%
X41000000Y67350000D03*
X41000000Y70650000D03*
%TD*%
%TO.C,D43*%
X136000000Y10350000D03*
X136000000Y13650000D03*
%TD*%
%TO.C,D35*%
X212000000Y29350000D03*
X212000000Y32650000D03*
%TD*%
%TO.C,D11*%
X212000000Y67350000D03*
X212000000Y70650000D03*
%TD*%
%TO.C,D24*%
X231000000Y48350000D03*
X231000000Y51650000D03*
%TD*%
%TO.C,D28*%
X79000000Y29350000D03*
X79000000Y32650000D03*
%TD*%
%TO.C,D29*%
X98000000Y29350000D03*
X98000000Y32650000D03*
%TD*%
%TO.C,D9*%
X174000000Y67350000D03*
X174000000Y70650000D03*
%TD*%
%TO.C,D23*%
X212000000Y48350000D03*
X212000000Y51650000D03*
%TD*%
%TO.C,D17*%
X98000000Y48350000D03*
X98000000Y51650000D03*
%TD*%
%TO.C,D39*%
X60000000Y10350000D03*
X60000000Y13650000D03*
%TD*%
%TO.C,D25*%
X22000000Y29350000D03*
X22000000Y32650000D03*
%TD*%
%TO.C,D34*%
X193000000Y29350000D03*
X193000000Y32650000D03*
%TD*%
%TO.C,D10*%
X193000000Y67350000D03*
X193000000Y70650000D03*
%TD*%
%TO.C,D42*%
X117000000Y10350000D03*
X117000000Y13650000D03*
%TD*%
%TO.C,D5*%
X98000000Y67350000D03*
X98000000Y70650000D03*
%TD*%
%TO.C,D47*%
X212000000Y10350000D03*
X212000000Y13650000D03*
%TD*%
%TO.C,D44*%
X155000000Y10350000D03*
X155000000Y13650000D03*
%TD*%
M02*
