%TF.GenerationSoftware,KiCad,Pcbnew,(5.99.0-8803-gb07c8110c8)*%
%TF.CreationDate,2021-05-08T13:19:11+01:00*%
%TF.ProjectId,Inflorescent,496e666c-6f72-4657-9363-656e742e6b69,rev?*%
%TF.SameCoordinates,PXf42400PY8954400*%
%TF.FileFunction,Copper,L2,Bot*%
%TF.FilePolarity,Positive*%
%FSLAX46Y46*%
G04 Gerber Fmt 4.6, Leading zero omitted, Abs format (unit mm)*
G04 Created by KiCad (PCBNEW (5.99.0-8803-gb07c8110c8)) date 2021-05-08 13:19:11*
%MOMM*%
%LPD*%
G01*
G04 APERTURE LIST*
%TA.AperFunction,SMDPad,CuDef*%
%ADD10R,2.550000X2.500000*%
%TD*%
%TA.AperFunction,ComponentPad*%
%ADD11C,2.286000*%
%TD*%
%TA.AperFunction,ComponentPad*%
%ADD12C,1.879600*%
%TD*%
%TA.AperFunction,SMDPad,CuDef*%
%ADD13R,1.200000X0.900000*%
%TD*%
%TA.AperFunction,ViaPad*%
%ADD14C,0.800000*%
%TD*%
%TA.AperFunction,Conductor*%
%ADD15C,0.250000*%
%TD*%
G04 APERTURE END LIST*
D10*
%TO.P,SW9,1,A*%
%TO.N,Net-(D9-Pad2)*%
X172290000Y76080000D03*
D11*
X163460000Y65920000D03*
%TO.P,SW9,2,B*%
%TO.N,/COL8*%
X169810000Y68460000D03*
D10*
X158440000Y73540000D03*
%TD*%
D11*
%TO.P,SW11,1,A*%
%TO.N,Net-(D11-Pad2)*%
X201460000Y65920000D03*
D10*
X210290000Y76080000D03*
%TO.P,SW11,2,B*%
%TO.N,/COL10*%
X196440000Y73540000D03*
D11*
X207810000Y68460000D03*
%TD*%
%TO.P,SW16,1,A*%
%TO.N,Net-(D16-Pad2)*%
X68460000Y46920000D03*
D10*
X77290000Y57080000D03*
%TO.P,SW16,2,B*%
%TO.N,/COL3*%
X63440000Y54540000D03*
D11*
X74810000Y49460000D03*
%TD*%
D10*
%TO.P,SW23,1,A*%
%TO.N,Net-(D23-Pad2)*%
X210290000Y57080000D03*
D11*
X201460000Y46920000D03*
D10*
%TO.P,SW23,2,B*%
%TO.N,/COL10*%
X196440000Y54540000D03*
D11*
X207810000Y49460000D03*
%TD*%
%TO.P,SW31,1,A*%
%TO.N,Net-(D31-Pad2)*%
X125460000Y27920000D03*
D10*
X134290000Y38080000D03*
%TO.P,SW31,2,B*%
%TO.N,/COL6*%
X120440000Y35540000D03*
D11*
X131810000Y30460000D03*
%TD*%
D10*
%TO.P,SW26,1,A*%
%TO.N,Net-(D26-Pad2)*%
X39290000Y38080000D03*
D11*
X30460000Y27920000D03*
D10*
%TO.P,SW26,2,B*%
%TO.N,/COL1*%
X25440000Y35540000D03*
D11*
X36810000Y30460000D03*
%TD*%
%TO.P,SW20,1,A*%
%TO.N,Net-(D20-Pad2)*%
X144460000Y46920000D03*
D10*
X153290000Y57080000D03*
%TO.P,SW20,2,B*%
%TO.N,/COL7*%
X139440000Y54540000D03*
D11*
X150810000Y49460000D03*
%TD*%
D10*
%TO.P,SW22,1,A*%
%TO.N,Net-(D22-Pad2)*%
X191290000Y57080000D03*
D11*
X182460000Y46920000D03*
D10*
%TO.P,SW22,2,B*%
%TO.N,/COL9*%
X177440000Y54540000D03*
D11*
X188810000Y49460000D03*
%TD*%
%TO.P,SW1,1,A*%
%TO.N,Net-(D1-Pad2)*%
X11460000Y65920000D03*
D10*
X20290000Y76080000D03*
%TO.P,SW1,2,B*%
%TO.N,/COL0*%
X6440000Y73540000D03*
D11*
X17810000Y68460000D03*
%TD*%
D10*
%TO.P,SW43,1,A*%
%TO.N,Net-(D43-Pad2)*%
X134290000Y19080000D03*
D11*
X125460000Y8920000D03*
%TO.P,SW43,2,B*%
%TO.N,/COL6*%
X131810000Y11460000D03*
D10*
X120440000Y16540000D03*
%TD*%
D11*
%TO.P,SW13,1,A*%
%TO.N,Net-(D13-Pad2)*%
X11460000Y46920000D03*
D10*
X20290000Y57080000D03*
D11*
%TO.P,SW13,2,B*%
%TO.N,/COL0*%
X17810000Y49460000D03*
D10*
X6440000Y54540000D03*
%TD*%
%TO.P,SW32,1,A*%
%TO.N,Net-(D32-Pad2)*%
X153290000Y38080000D03*
D11*
X144460000Y27920000D03*
%TO.P,SW32,2,B*%
%TO.N,/COL7*%
X150810000Y30460000D03*
D10*
X139440000Y35540000D03*
%TD*%
D11*
%TO.P,SW37,1,A*%
%TO.N,Net-(D37-Pad2)*%
X11460000Y8920000D03*
D10*
X20290000Y19080000D03*
%TO.P,SW37,2,B*%
%TO.N,/COL0*%
X6440000Y16540000D03*
D11*
X17810000Y11460000D03*
%TD*%
%TO.P,SW25,1,A*%
%TO.N,Net-(D25-Pad2)*%
X11460000Y27920000D03*
D10*
X20290000Y38080000D03*
D11*
%TO.P,SW25,2,B*%
%TO.N,/COL0*%
X17810000Y30460000D03*
D10*
X6440000Y35540000D03*
%TD*%
%TO.P,SW24,1,A*%
%TO.N,Net-(D24-Pad2)*%
X229290000Y57080000D03*
D11*
X220460000Y46920000D03*
D10*
%TO.P,SW24,2,B*%
%TO.N,/COL11*%
X215440000Y54540000D03*
D11*
X226810000Y49460000D03*
%TD*%
%TO.P,SW34,1,A*%
%TO.N,Net-(D34-Pad2)*%
X182460000Y27920000D03*
D10*
X191290000Y38080000D03*
%TO.P,SW34,2,B*%
%TO.N,/COL9*%
X177440000Y35540000D03*
D11*
X188810000Y30460000D03*
%TD*%
D10*
%TO.P,SW2,1,A*%
%TO.N,Net-(D2-Pad2)*%
X39290000Y76080000D03*
D11*
X30460000Y65920000D03*
%TO.P,SW2,2,B*%
%TO.N,/COL1*%
X36810000Y68460000D03*
D10*
X25440000Y73540000D03*
%TD*%
D11*
%TO.P,SW46,1,A*%
%TO.N,Net-(D46-Pad2)*%
X182460000Y8920000D03*
D10*
X191290000Y19080000D03*
D11*
%TO.P,SW46,2,B*%
%TO.N,/COL9*%
X188810000Y11460000D03*
D10*
X177440000Y16540000D03*
%TD*%
%TO.P,SW42,1,A*%
%TO.N,Net-(D42-Pad2)*%
X115290000Y19080000D03*
D11*
X106460000Y8920000D03*
D10*
%TO.P,SW42,2,B*%
%TO.N,/COL5*%
X101440000Y16540000D03*
D11*
X112810000Y11460000D03*
%TD*%
%TO.P,SW15,1,A*%
%TO.N,Net-(D15-Pad2)*%
X49460000Y46920000D03*
D10*
X58290000Y57080000D03*
%TO.P,SW15,2,B*%
%TO.N,/COL2*%
X44440000Y54540000D03*
D11*
X55810000Y49460000D03*
%TD*%
%TO.P,SW4,1,A*%
%TO.N,Net-(D4-Pad2)*%
X68460000Y65920000D03*
D10*
X77290000Y76080000D03*
%TO.P,SW4,2,B*%
%TO.N,/COL3*%
X63440000Y73540000D03*
D11*
X74810000Y68460000D03*
%TD*%
D10*
%TO.P,SW12,1,A*%
%TO.N,Net-(D12-Pad2)*%
X229290000Y76080000D03*
D11*
X220460000Y65920000D03*
%TO.P,SW12,2,B*%
%TO.N,/COL11*%
X226810000Y68460000D03*
D10*
X215440000Y73540000D03*
%TD*%
%TO.P,SW47,1,A*%
%TO.N,Net-(D47-Pad2)*%
X210290000Y19080000D03*
D11*
X201460000Y8920000D03*
D10*
%TO.P,SW47,2,B*%
%TO.N,/COL10*%
X196440000Y16540000D03*
D11*
X207810000Y11460000D03*
%TD*%
D10*
%TO.P,SW33,1,A*%
%TO.N,Net-(D33-Pad2)*%
X172290000Y38080000D03*
D11*
X163460000Y27920000D03*
D10*
%TO.P,SW33,2,B*%
%TO.N,/COL8*%
X158440000Y35540000D03*
D11*
X169810000Y30460000D03*
%TD*%
%TO.P,SW36,1,A*%
%TO.N,Net-(D36-Pad2)*%
X220460000Y27920000D03*
D10*
X229290000Y38080000D03*
%TO.P,SW36,2,B*%
%TO.N,/COL11*%
X215440000Y35540000D03*
D11*
X226810000Y30460000D03*
%TD*%
%TO.P,SW29,1,A*%
%TO.N,Net-(D29-Pad2)*%
X87460000Y27920000D03*
D10*
X96290000Y38080000D03*
D11*
%TO.P,SW29,2,B*%
%TO.N,/COL4*%
X93810000Y30460000D03*
D10*
X82440000Y35540000D03*
%TD*%
%TO.P,SW5,1,A*%
%TO.N,Net-(D5-Pad2)*%
X96290000Y76080000D03*
D11*
X87460000Y65920000D03*
D10*
%TO.P,SW5,2,B*%
%TO.N,/COL4*%
X82440000Y73540000D03*
D11*
X93810000Y68460000D03*
%TD*%
%TO.P,SW44,1,A*%
%TO.N,Net-(D44-Pad2)*%
X144460000Y8920000D03*
D10*
X153290000Y19080000D03*
D11*
%TO.P,SW44,2,B*%
%TO.N,/COL7*%
X150810000Y11460000D03*
D10*
X139440000Y16540000D03*
%TD*%
D11*
%TO.P,SW48,1,A*%
%TO.N,Net-(D48-Pad2)*%
X220460000Y8920000D03*
D10*
X229290000Y19080000D03*
D11*
%TO.P,SW48,2,B*%
%TO.N,/COL11*%
X226810000Y11460000D03*
D10*
X215440000Y16540000D03*
%TD*%
D11*
%TO.P,SW21,1,A*%
%TO.N,Net-(D21-Pad2)*%
X163460000Y46920000D03*
D10*
X172290000Y57080000D03*
D11*
%TO.P,SW21,2,B*%
%TO.N,/COL8*%
X169810000Y49460000D03*
D10*
X158440000Y54540000D03*
%TD*%
D11*
%TO.P,SW8,1,A*%
%TO.N,Net-(D8-Pad2)*%
X144460000Y65920000D03*
D10*
X153290000Y76080000D03*
%TO.P,SW8,2,B*%
%TO.N,/COL7*%
X139440000Y73540000D03*
D11*
X150810000Y68460000D03*
%TD*%
%TO.P,SW28,1,A*%
%TO.N,Net-(D28-Pad2)*%
X68460000Y27920000D03*
D10*
X77290000Y38080000D03*
%TO.P,SW28,2,B*%
%TO.N,/COL3*%
X63440000Y35540000D03*
D11*
X74810000Y30460000D03*
%TD*%
D10*
%TO.P,SW38,1,A*%
%TO.N,Net-(D38-Pad2)*%
X39290000Y19080000D03*
D11*
X30460000Y8920000D03*
%TO.P,SW38,2,B*%
%TO.N,/COL1*%
X36810000Y11460000D03*
D10*
X25440000Y16540000D03*
%TD*%
D11*
%TO.P,SW3,1,A*%
%TO.N,Net-(D3-Pad2)*%
X49460000Y65920000D03*
D10*
X58290000Y76080000D03*
%TO.P,SW3,2,B*%
%TO.N,/COL2*%
X44440000Y73540000D03*
D11*
X55810000Y68460000D03*
%TD*%
%TO.P,SW40,1,A*%
%TO.N,Net-(D40-Pad2)*%
X68460000Y8920000D03*
D10*
X77290000Y19080000D03*
D11*
%TO.P,SW40,2,B*%
%TO.N,/COL3*%
X74810000Y11460000D03*
D10*
X63440000Y16540000D03*
%TD*%
D11*
%TO.P,SW27,1,A*%
%TO.N,Net-(D27-Pad2)*%
X49460000Y27920000D03*
D10*
X58290000Y38080000D03*
%TO.P,SW27,2,B*%
%TO.N,/COL2*%
X44440000Y35540000D03*
D11*
X55810000Y30460000D03*
%TD*%
%TO.P,SW14,1,A*%
%TO.N,Net-(D14-Pad2)*%
X30460000Y46920000D03*
D10*
X39290000Y57080000D03*
D11*
%TO.P,SW14,2,B*%
%TO.N,/COL1*%
X36810000Y49460000D03*
D10*
X25440000Y54540000D03*
%TD*%
D11*
%TO.P,SW30,1,A*%
%TO.N,Net-(D30-Pad2)*%
X106460000Y27920000D03*
D10*
X115290000Y38080000D03*
%TO.P,SW30,2,B*%
%TO.N,/COL5*%
X101440000Y35540000D03*
D11*
X112810000Y30460000D03*
%TD*%
%TO.P,SW45,1,A*%
%TO.N,Net-(D45-Pad2)*%
X163460000Y8920000D03*
D10*
X172290000Y19080000D03*
%TO.P,SW45,2,B*%
%TO.N,/COL8*%
X158440000Y16540000D03*
D11*
X169810000Y11460000D03*
%TD*%
D12*
%TO.P,U1,1,TX0*%
%TO.N,unconnected-(U1-Pad1)*%
X110880000Y71200000D03*
%TO.P,U1,2,RXI*%
%TO.N,unconnected-(U1-Pad2)*%
X110880000Y68660000D03*
%TO.P,U1,3,GND*%
%TO.N,unconnected-(U1-Pad3)*%
X110880000Y66120000D03*
%TO.P,U1,4,GND*%
%TO.N,unconnected-(U1-Pad4)*%
X110880000Y63580000D03*
%TO.P,U1,5,D2*%
%TO.N,/ROW1*%
X110880000Y61040000D03*
%TO.P,U1,6,D3*%
%TO.N,/COL0*%
X110880000Y58500000D03*
%TO.P,U1,7,D4*%
%TO.N,/COL1*%
X110880000Y55960000D03*
%TO.P,U1,8,D5*%
%TO.N,/COL2*%
X110880000Y53420000D03*
%TO.P,U1,9,D6*%
%TO.N,/COL3*%
X110880000Y50880000D03*
%TO.P,U1,10,D7*%
%TO.N,/COL4*%
X110880000Y48340000D03*
%TO.P,U1,11,D8*%
%TO.N,/COL5*%
X110880000Y45800000D03*
%TO.P,U1,12,D9*%
%TO.N,/ROW3*%
X110880000Y43260000D03*
%TO.P,U1,13,D10*%
%TO.N,/ROW2*%
X126120000Y43260000D03*
%TO.P,U1,14,D16*%
%TO.N,/COL6*%
X126120000Y45800000D03*
%TO.P,U1,15,D14*%
%TO.N,/COL7*%
X126120000Y48340000D03*
%TO.P,U1,16,D15*%
%TO.N,/COL8*%
X126120000Y50880000D03*
%TO.P,U1,17,A0*%
%TO.N,/COL9*%
X126120000Y53420000D03*
%TO.P,U1,18,A1*%
%TO.N,/COL10*%
X126120000Y55960000D03*
%TO.P,U1,19,A2*%
%TO.N,/COL11*%
X126120000Y58500000D03*
%TO.P,U1,20,A3*%
%TO.N,/ROW0*%
X126120000Y61040000D03*
%TO.P,U1,21,VCC*%
%TO.N,unconnected-(U1-Pad21)*%
X126120000Y63580000D03*
%TO.P,U1,22,RST*%
%TO.N,unconnected-(U1-Pad22)*%
X126120000Y66120000D03*
%TO.P,U1,23,GND*%
%TO.N,unconnected-(U1-Pad23)*%
X126120000Y68660000D03*
%TO.P,U1,24,RAW*%
%TO.N,unconnected-(U1-Pad24)*%
X126120000Y71200000D03*
%TD*%
D10*
%TO.P,SW10,1,A*%
%TO.N,Net-(D10-Pad2)*%
X191290000Y76080000D03*
D11*
X182460000Y65920000D03*
%TO.P,SW10,2,B*%
%TO.N,/COL9*%
X188810000Y68460000D03*
D10*
X177440000Y73540000D03*
%TD*%
D11*
%TO.P,SW39,1,A*%
%TO.N,Net-(D39-Pad2)*%
X49460000Y8920000D03*
D10*
X58290000Y19080000D03*
%TO.P,SW39,2,B*%
%TO.N,/COL2*%
X44440000Y16540000D03*
D11*
X55810000Y11460000D03*
%TD*%
D10*
%TO.P,SW35,1,A*%
%TO.N,Net-(D35-Pad2)*%
X210290000Y38080000D03*
D11*
X201460000Y27920000D03*
%TO.P,SW35,2,B*%
%TO.N,/COL10*%
X207810000Y30460000D03*
D10*
X196440000Y35540000D03*
%TD*%
D11*
%TO.P,SW17,1,A*%
%TO.N,Net-(D17-Pad2)*%
X87460000Y46920000D03*
D10*
X96290000Y57080000D03*
D11*
%TO.P,SW17,2,B*%
%TO.N,/COL4*%
X93810000Y49460000D03*
D10*
X82440000Y54540000D03*
%TD*%
D11*
%TO.P,SW41,1,A*%
%TO.N,Net-(D41-Pad2)*%
X87460000Y8920000D03*
D10*
X96290000Y19080000D03*
D11*
%TO.P,SW41,2,B*%
%TO.N,/COL4*%
X93810000Y11460000D03*
D10*
X82440000Y16540000D03*
%TD*%
D13*
%TO.P,D46,1,K*%
%TO.N,/ROW3*%
X193000000Y10350000D03*
%TO.P,D46,2,A*%
%TO.N,Net-(D46-Pad2)*%
X193000000Y13650000D03*
%TD*%
%TO.P,D32,1,K*%
%TO.N,/ROW2*%
X155000000Y29350000D03*
%TO.P,D32,2,A*%
%TO.N,Net-(D32-Pad2)*%
X155000000Y32650000D03*
%TD*%
%TO.P,D22,1,K*%
%TO.N,/ROW1*%
X193000000Y48350000D03*
%TO.P,D22,2,A*%
%TO.N,Net-(D22-Pad2)*%
X193000000Y51650000D03*
%TD*%
%TO.P,D37,1,K*%
%TO.N,/ROW3*%
X22000000Y10350000D03*
%TO.P,D37,2,A*%
%TO.N,Net-(D37-Pad2)*%
X22000000Y13650000D03*
%TD*%
%TO.P,D40,1,K*%
%TO.N,/ROW3*%
X79000000Y10350000D03*
%TO.P,D40,2,A*%
%TO.N,Net-(D40-Pad2)*%
X79000000Y13650000D03*
%TD*%
%TO.P,D3,1,K*%
%TO.N,/ROW0*%
X60000000Y67350000D03*
%TO.P,D3,2,A*%
%TO.N,Net-(D3-Pad2)*%
X60000000Y70650000D03*
%TD*%
%TO.P,D13,1,K*%
%TO.N,/ROW1*%
X22000000Y48350000D03*
%TO.P,D13,2,A*%
%TO.N,Net-(D13-Pad2)*%
X22000000Y51650000D03*
%TD*%
%TO.P,D31,1,K*%
%TO.N,/ROW2*%
X136000000Y29500000D03*
%TO.P,D31,2,A*%
%TO.N,Net-(D31-Pad2)*%
X136000000Y32800000D03*
%TD*%
%TO.P,D48,1,K*%
%TO.N,/ROW3*%
X231000000Y10350000D03*
%TO.P,D48,2,A*%
%TO.N,Net-(D48-Pad2)*%
X231000000Y13650000D03*
%TD*%
%TO.P,D8,1,K*%
%TO.N,/ROW0*%
X155000000Y67350000D03*
%TO.P,D8,2,A*%
%TO.N,Net-(D8-Pad2)*%
X155000000Y70650000D03*
%TD*%
%TO.P,D20,1,K*%
%TO.N,/ROW1*%
X155000000Y48350000D03*
%TO.P,D20,2,A*%
%TO.N,Net-(D20-Pad2)*%
X155000000Y51650000D03*
%TD*%
%TO.P,D21,1,K*%
%TO.N,/ROW1*%
X174000000Y48350000D03*
%TO.P,D21,2,A*%
%TO.N,Net-(D21-Pad2)*%
X174000000Y51650000D03*
%TD*%
%TO.P,D38,1,K*%
%TO.N,/ROW3*%
X41000000Y10350000D03*
%TO.P,D38,2,A*%
%TO.N,Net-(D38-Pad2)*%
X41000000Y13650000D03*
%TD*%
%TO.P,D33,1,K*%
%TO.N,/ROW2*%
X174000000Y29350000D03*
%TO.P,D33,2,A*%
%TO.N,Net-(D33-Pad2)*%
X174000000Y32650000D03*
%TD*%
%TO.P,D4,1,K*%
%TO.N,/ROW0*%
X79000000Y67350000D03*
%TO.P,D4,2,A*%
%TO.N,Net-(D4-Pad2)*%
X79000000Y70650000D03*
%TD*%
%TO.P,D41,1,K*%
%TO.N,/ROW3*%
X98000000Y10350000D03*
%TO.P,D41,2,A*%
%TO.N,Net-(D41-Pad2)*%
X98000000Y13650000D03*
%TD*%
%TO.P,D27,1,K*%
%TO.N,/ROW2*%
X60000000Y29350000D03*
%TO.P,D27,2,A*%
%TO.N,Net-(D27-Pad2)*%
X60000000Y32650000D03*
%TD*%
%TO.P,D15,1,K*%
%TO.N,/ROW1*%
X60000000Y48350000D03*
%TO.P,D15,2,A*%
%TO.N,Net-(D15-Pad2)*%
X60000000Y51650000D03*
%TD*%
%TO.P,D14,1,K*%
%TO.N,/ROW1*%
X41000000Y48350000D03*
%TO.P,D14,2,A*%
%TO.N,Net-(D14-Pad2)*%
X41000000Y51650000D03*
%TD*%
%TO.P,D26,1,K*%
%TO.N,/ROW2*%
X41000000Y29350000D03*
%TO.P,D26,2,A*%
%TO.N,Net-(D26-Pad2)*%
X41000000Y32650000D03*
%TD*%
%TO.P,D30,1,K*%
%TO.N,/ROW2*%
X117000000Y29350000D03*
%TO.P,D30,2,A*%
%TO.N,Net-(D30-Pad2)*%
X117000000Y32650000D03*
%TD*%
%TO.P,D36,1,K*%
%TO.N,/ROW2*%
X231000000Y29350000D03*
%TO.P,D36,2,A*%
%TO.N,Net-(D36-Pad2)*%
X231000000Y32650000D03*
%TD*%
%TO.P,D12,1,K*%
%TO.N,/ROW0*%
X231000000Y67350000D03*
%TO.P,D12,2,A*%
%TO.N,Net-(D12-Pad2)*%
X231000000Y70650000D03*
%TD*%
%TO.P,D1,1,K*%
%TO.N,/ROW0*%
X22000000Y67350000D03*
%TO.P,D1,2,A*%
%TO.N,Net-(D1-Pad2)*%
X22000000Y70650000D03*
%TD*%
%TO.P,D45,1,K*%
%TO.N,/ROW3*%
X174000000Y10350000D03*
%TO.P,D45,2,A*%
%TO.N,Net-(D45-Pad2)*%
X174000000Y13650000D03*
%TD*%
%TO.P,D16,1,K*%
%TO.N,/ROW1*%
X79000000Y48350000D03*
%TO.P,D16,2,A*%
%TO.N,Net-(D16-Pad2)*%
X79000000Y51650000D03*
%TD*%
%TO.P,D2,1,K*%
%TO.N,/ROW0*%
X41000000Y67350000D03*
%TO.P,D2,2,A*%
%TO.N,Net-(D2-Pad2)*%
X41000000Y70650000D03*
%TD*%
%TO.P,D43,1,K*%
%TO.N,/ROW3*%
X136000000Y10350000D03*
%TO.P,D43,2,A*%
%TO.N,Net-(D43-Pad2)*%
X136000000Y13650000D03*
%TD*%
%TO.P,D35,1,K*%
%TO.N,/ROW2*%
X212000000Y29350000D03*
%TO.P,D35,2,A*%
%TO.N,Net-(D35-Pad2)*%
X212000000Y32650000D03*
%TD*%
%TO.P,D11,1,K*%
%TO.N,/ROW0*%
X212000000Y67350000D03*
%TO.P,D11,2,A*%
%TO.N,Net-(D11-Pad2)*%
X212000000Y70650000D03*
%TD*%
%TO.P,D24,1,K*%
%TO.N,/ROW1*%
X231000000Y48350000D03*
%TO.P,D24,2,A*%
%TO.N,Net-(D24-Pad2)*%
X231000000Y51650000D03*
%TD*%
%TO.P,D28,1,K*%
%TO.N,/ROW2*%
X79000000Y29350000D03*
%TO.P,D28,2,A*%
%TO.N,Net-(D28-Pad2)*%
X79000000Y32650000D03*
%TD*%
%TO.P,D29,1,K*%
%TO.N,/ROW2*%
X98000000Y29350000D03*
%TO.P,D29,2,A*%
%TO.N,Net-(D29-Pad2)*%
X98000000Y32650000D03*
%TD*%
%TO.P,D9,1,K*%
%TO.N,/ROW0*%
X174000000Y67350000D03*
%TO.P,D9,2,A*%
%TO.N,Net-(D9-Pad2)*%
X174000000Y70650000D03*
%TD*%
%TO.P,D23,1,K*%
%TO.N,/ROW1*%
X212000000Y48350000D03*
%TO.P,D23,2,A*%
%TO.N,Net-(D23-Pad2)*%
X212000000Y51650000D03*
%TD*%
%TO.P,D17,1,K*%
%TO.N,/ROW1*%
X98000000Y48350000D03*
%TO.P,D17,2,A*%
%TO.N,Net-(D17-Pad2)*%
X98000000Y51650000D03*
%TD*%
%TO.P,D39,1,K*%
%TO.N,/ROW3*%
X60000000Y10350000D03*
%TO.P,D39,2,A*%
%TO.N,Net-(D39-Pad2)*%
X60000000Y13650000D03*
%TD*%
%TO.P,D25,1,K*%
%TO.N,/ROW2*%
X22000000Y29350000D03*
%TO.P,D25,2,A*%
%TO.N,Net-(D25-Pad2)*%
X22000000Y32650000D03*
%TD*%
%TO.P,D34,1,K*%
%TO.N,/ROW2*%
X193000000Y29350000D03*
%TO.P,D34,2,A*%
%TO.N,Net-(D34-Pad2)*%
X193000000Y32650000D03*
%TD*%
%TO.P,D10,1,K*%
%TO.N,/ROW0*%
X193000000Y67350000D03*
%TO.P,D10,2,A*%
%TO.N,Net-(D10-Pad2)*%
X193000000Y70650000D03*
%TD*%
%TO.P,D42,1,K*%
%TO.N,/ROW3*%
X117000000Y10350000D03*
%TO.P,D42,2,A*%
%TO.N,Net-(D42-Pad2)*%
X117000000Y13650000D03*
%TD*%
%TO.P,D5,1,K*%
%TO.N,/ROW0*%
X98000000Y67350000D03*
%TO.P,D5,2,A*%
%TO.N,Net-(D5-Pad2)*%
X98000000Y70650000D03*
%TD*%
%TO.P,D47,1,K*%
%TO.N,/ROW3*%
X212000000Y10350000D03*
%TO.P,D47,2,A*%
%TO.N,Net-(D47-Pad2)*%
X212000000Y13650000D03*
%TD*%
%TO.P,D44,1,K*%
%TO.N,/ROW3*%
X155000000Y10350000D03*
%TO.P,D44,2,A*%
%TO.N,Net-(D44-Pad2)*%
X155000000Y13650000D03*
%TD*%
D14*
%TO.N,/ROW3*%
X118000000Y25100000D03*
%TD*%
D15*
%TO.N,Net-(D1-Pad2)*%
X22065000Y69028750D02*
X20465000Y69028750D01*
X21972500Y70841250D02*
X21972500Y76378750D01*
X21972500Y76378750D02*
X20370000Y76378750D01*
X20465000Y65828750D02*
X11657500Y65828750D01*
X22077500Y70678750D02*
X22077500Y69041250D01*
X20465000Y69028750D02*
X20465000Y65828750D01*
%TO.N,/ROW0*%
X60000000Y64150000D02*
X60000000Y67300000D01*
X125881900Y61050000D02*
X123660000Y61050000D01*
X109000000Y64200000D02*
X109000000Y64850000D01*
X108950000Y64150000D02*
X109000000Y64200000D01*
X60248750Y64150000D02*
X41000000Y64150000D01*
X155000000Y64150000D02*
X155000000Y67300000D01*
X123400000Y64850000D02*
X128000000Y64850000D01*
X98000000Y67300000D02*
X98000000Y64150000D01*
X22000000Y64150000D02*
X22000000Y67300000D01*
X123660000Y61050000D02*
X123660000Y64785000D01*
X231000000Y64150000D02*
X212000000Y64150000D01*
X98000000Y64150000D02*
X108950000Y64150000D01*
X109000000Y64850000D02*
X123400000Y64850000D01*
X41248750Y64150000D02*
X22000000Y64150000D01*
X128000000Y64850000D02*
X128000000Y64150000D01*
X174000000Y64150000D02*
X174000000Y67300000D01*
X79000000Y64150000D02*
X79000000Y67300000D01*
X128000000Y64400000D02*
X128000000Y64150000D01*
X212248750Y64150000D02*
X193000000Y64150000D01*
X174248750Y64150000D02*
X155000000Y64150000D01*
X193248750Y64150000D02*
X174000000Y64150000D01*
X41000000Y64150000D02*
X41000000Y67300000D01*
X79248750Y64150000D02*
X60000000Y64150000D01*
X98248750Y64150000D02*
X79000000Y64150000D01*
X212000000Y64150000D02*
X212000000Y67300000D01*
X231000000Y67350000D02*
X231000000Y64150000D01*
X128000000Y64150000D02*
X155000000Y64150000D01*
X123660000Y64785000D02*
X123725000Y64850000D01*
X193000000Y64150000D02*
X193000000Y67300000D01*
X125889900Y61042000D02*
X125881900Y61050000D01*
%TO.N,Net-(D2-Pad2)*%
X41065000Y69028750D02*
X39465000Y69028750D01*
X41077500Y70678750D02*
X41077500Y69041250D01*
X39465000Y69028750D02*
X39465000Y65828750D01*
X40972500Y70841250D02*
X40972500Y76378750D01*
X39465000Y65828750D02*
X30657500Y65828750D01*
X40972500Y76378750D02*
X39370000Y76378750D01*
%TO.N,Net-(D3-Pad2)*%
X59967500Y76378750D02*
X58365000Y76378750D01*
X58460000Y65828750D02*
X49652500Y65828750D01*
X59967500Y70841250D02*
X59967500Y76378750D01*
X58460000Y69028750D02*
X58460000Y65828750D01*
X60072500Y70678750D02*
X60072500Y69041250D01*
X60060000Y69028750D02*
X58460000Y69028750D01*
%TO.N,Net-(D4-Pad2)*%
X79072500Y70678750D02*
X79072500Y69041250D01*
X79060000Y69028750D02*
X77460000Y69028750D01*
X77460000Y69028750D02*
X77460000Y65828750D01*
X78967500Y70841250D02*
X78967500Y76378750D01*
X78967500Y76378750D02*
X77365000Y76378750D01*
X77460000Y65828750D02*
X68652500Y65828750D01*
%TO.N,Net-(D5-Pad2)*%
X98072500Y70678750D02*
X98072500Y69041250D01*
X98060000Y69028750D02*
X96460000Y69028750D01*
X96460000Y65828750D02*
X87652500Y65828750D01*
X97967500Y70841250D02*
X97967500Y76378750D01*
X97967500Y76378750D02*
X96365000Y76378750D01*
X96460000Y69028750D02*
X96460000Y65828750D01*
%TO.N,Net-(D8-Pad2)*%
X155040000Y69078750D02*
X153440000Y69078750D01*
X155052500Y70728750D02*
X155052500Y69091250D01*
X153440000Y65878750D02*
X144632500Y65878750D01*
X153440000Y69078750D02*
X153440000Y65878750D01*
X154967500Y70841250D02*
X154967500Y76378750D01*
X154967500Y76378750D02*
X153365000Y76378750D01*
%TO.N,Net-(D9-Pad2)*%
X173952500Y70728750D02*
X173952500Y69091250D01*
X173940000Y69078750D02*
X172340000Y69078750D01*
X173967500Y76378750D02*
X172365000Y76378750D01*
X172340000Y65878750D02*
X163532500Y65878750D01*
X173967500Y70841250D02*
X173967500Y76378750D01*
X172340000Y69078750D02*
X172340000Y65878750D01*
%TO.N,Net-(D10-Pad2)*%
X191440000Y69078750D02*
X191440000Y65878750D01*
X192967500Y70841250D02*
X192967500Y76378750D01*
X193040000Y69078750D02*
X191440000Y69078750D01*
X191440000Y65878750D02*
X182632500Y65878750D01*
X192967500Y76378750D02*
X191365000Y76378750D01*
X193052500Y70728750D02*
X193052500Y69091250D01*
%TO.N,Net-(D11-Pad2)*%
X211967500Y76378750D02*
X210365000Y76378750D01*
X212060000Y69028750D02*
X210460000Y69028750D01*
X210460000Y69028750D02*
X210460000Y65828750D01*
X212072500Y70678750D02*
X212072500Y69041250D01*
X211967500Y70841250D02*
X211967500Y76378750D01*
X210460000Y65828750D02*
X201652500Y65828750D01*
%TO.N,Net-(D12-Pad2)*%
X231065000Y69041250D02*
X231052500Y69028750D01*
X230965000Y70841250D02*
X230965000Y76378750D01*
X229452500Y65828750D02*
X220645000Y65828750D01*
X231065000Y70678750D02*
X231065000Y69041250D01*
X229452500Y69028750D02*
X229452500Y65828750D01*
X231052500Y69028750D02*
X229452500Y69028750D01*
X230965000Y76378750D02*
X229362500Y76378750D01*
%TO.N,Net-(D13-Pad2)*%
X21990000Y51728750D02*
X21990000Y50091250D01*
X21968750Y57378750D02*
X20366250Y57378750D01*
X20377500Y50078750D02*
X20377500Y46878750D01*
X21968750Y51841250D02*
X21968750Y57378750D01*
X21977500Y50078750D02*
X20377500Y50078750D01*
X20377500Y46878750D02*
X11570000Y46878750D01*
%TO.N,/ROW1*%
X79000000Y45150000D02*
X79000000Y48300000D01*
X60000000Y45150000D02*
X60000000Y48300000D01*
X22000000Y45150000D02*
X22000000Y48300000D01*
X113810000Y47090000D02*
X113825000Y47075000D01*
X79248750Y45150000D02*
X60000000Y45150000D01*
X193248750Y45150000D02*
X174000000Y45150000D01*
X113825000Y47075000D02*
X108300000Y47075000D01*
X113803000Y61042000D02*
X113810000Y61035000D01*
X108300000Y45150000D02*
X79000000Y45150000D01*
X41000000Y45150000D02*
X41000000Y48300000D01*
X110649900Y61042000D02*
X113803000Y61042000D01*
X108300000Y47075000D02*
X108300000Y45150000D01*
X128050000Y47075000D02*
X128050000Y45150000D01*
X193000000Y45150000D02*
X193000000Y48300000D01*
X98000000Y45150000D02*
X98000000Y48300000D01*
X174248750Y45150000D02*
X155000000Y45150000D01*
X174000000Y45150000D02*
X174000000Y48300000D01*
X41248750Y45150000D02*
X22000000Y45150000D01*
X60248750Y45150000D02*
X41000000Y45150000D01*
X113810000Y61035000D02*
X113810000Y47090000D01*
X113825000Y47075000D02*
X128050000Y47075000D01*
X212248750Y45150000D02*
X193000000Y45150000D01*
X212000000Y45150000D02*
X212000000Y48300000D01*
X108300000Y45800000D02*
X108300000Y45150000D01*
X155000000Y45150000D02*
X155000000Y48300000D01*
X231000000Y48350000D02*
X231000000Y45150000D01*
X231000000Y45150000D02*
X212000000Y45150000D01*
X128050000Y45150000D02*
X155000000Y45150000D01*
%TO.N,Net-(D14-Pad2)*%
X40977500Y50078750D02*
X39377500Y50078750D01*
X40968750Y51841250D02*
X40968750Y57378750D01*
X40968750Y57378750D02*
X39366250Y57378750D01*
X40990000Y51728750D02*
X40990000Y50091250D01*
X39377500Y46878750D02*
X30570000Y46878750D01*
X39377500Y50078750D02*
X39377500Y46878750D01*
%TO.N,Net-(D15-Pad2)*%
X59985000Y51728750D02*
X59985000Y50091250D01*
X59963750Y51841250D02*
X59963750Y57378750D01*
X58372500Y50078750D02*
X58372500Y46878750D01*
X59972500Y50078750D02*
X58372500Y50078750D01*
X58372500Y46878750D02*
X49565000Y46878750D01*
X59963750Y57378750D02*
X58361250Y57378750D01*
%TO.N,Net-(D16-Pad2)*%
X78972500Y50078750D02*
X77372500Y50078750D01*
X77372500Y50078750D02*
X77372500Y46878750D01*
X77372500Y46878750D02*
X68565000Y46878750D01*
X78985000Y51728750D02*
X78985000Y50091250D01*
X78963750Y51841250D02*
X78963750Y57378750D01*
X78963750Y57378750D02*
X77361250Y57378750D01*
%TO.N,Net-(D17-Pad2)*%
X97963750Y57378750D02*
X96361250Y57378750D01*
X97985000Y51728750D02*
X97985000Y50091250D01*
X96372500Y46878750D02*
X87565000Y46878750D01*
X96372500Y50078750D02*
X96372500Y46878750D01*
X97963750Y51841250D02*
X97963750Y57378750D01*
X97972500Y50078750D02*
X96372500Y50078750D01*
%TO.N,Net-(D20-Pad2)*%
X153352500Y46928750D02*
X144545000Y46928750D01*
X154963750Y57378750D02*
X153361250Y57378750D01*
X154963750Y51841250D02*
X154963750Y57378750D01*
X154952500Y50128750D02*
X153352500Y50128750D01*
X153352500Y50128750D02*
X153352500Y46928750D01*
X154965000Y51778750D02*
X154965000Y50141250D01*
%TO.N,Net-(D21-Pad2)*%
X172252500Y50128750D02*
X172252500Y46928750D01*
X173852500Y50128750D02*
X172252500Y50128750D01*
X173865000Y51778750D02*
X173865000Y50141250D01*
X172252500Y46928750D02*
X163445000Y46928750D01*
X173963750Y51841250D02*
X173963750Y57378750D01*
X173963750Y57378750D02*
X172361250Y57378750D01*
%TO.N,Net-(D22-Pad2)*%
X192965000Y51778750D02*
X192965000Y50141250D01*
X192963750Y57378750D02*
X191361250Y57378750D01*
X191352500Y50128750D02*
X191352500Y46928750D01*
X192963750Y51841250D02*
X192963750Y57378750D01*
X192952500Y50128750D02*
X191352500Y50128750D01*
X191352500Y46928750D02*
X182545000Y46928750D01*
%TO.N,Net-(D23-Pad2)*%
X211963750Y51841250D02*
X211963750Y57378750D01*
X211963750Y57378750D02*
X210361250Y57378750D01*
X210372500Y50078750D02*
X210372500Y46878750D01*
X211985000Y51728750D02*
X211985000Y50091250D01*
X211972500Y50078750D02*
X210372500Y50078750D01*
X210372500Y46878750D02*
X201565000Y46878750D01*
%TO.N,Net-(D24-Pad2)*%
X230977500Y50091250D02*
X230965000Y50078750D01*
X230961250Y51841250D02*
X230961250Y57378750D01*
X230961250Y57378750D02*
X229358750Y57378750D01*
X229365000Y50078750D02*
X229365000Y46878750D01*
X230977500Y51728750D02*
X230977500Y50091250D01*
X229365000Y46878750D02*
X220557500Y46878750D01*
X230965000Y50078750D02*
X229365000Y50078750D01*
%TO.N,Net-(D25-Pad2)*%
X21972500Y32841250D02*
X21972500Y38378750D01*
X21972500Y38378750D02*
X20370000Y38378750D01*
X21977500Y31078750D02*
X20377500Y31078750D01*
X20377500Y27878750D02*
X11570000Y27878750D01*
X21990000Y32728750D02*
X21990000Y31091250D01*
X20377500Y31078750D02*
X20377500Y27878750D01*
%TO.N,/ROW2*%
X41000000Y26193750D02*
X41000000Y29400000D01*
X155000000Y26200000D02*
X155028750Y26171250D01*
X174028750Y26171250D02*
X192928750Y26171250D01*
X174000000Y26200000D02*
X174028750Y26171250D01*
X136000000Y29500000D02*
X137100000Y29500000D01*
X41248750Y26200000D02*
X22000000Y26200000D01*
X155000000Y29350000D02*
X155000000Y26200000D01*
X117000000Y26193750D02*
X117000000Y29400000D01*
X212000000Y29350000D02*
X212000000Y26242500D01*
X212071250Y26171250D02*
X231000000Y26171250D01*
X212000000Y26242500D02*
X212071250Y26171250D01*
X98022500Y26171250D02*
X155028750Y26171250D01*
X231000000Y29350000D02*
X231000000Y26171250D01*
X22000000Y26200000D02*
X22000000Y29350000D01*
X155028750Y26171250D02*
X174028750Y26171250D01*
X174000000Y29350000D02*
X174000000Y26200000D01*
X136000000Y26193750D02*
X136000000Y29400000D01*
X192928750Y26171250D02*
X212071250Y26171250D01*
X79000000Y26193750D02*
X79000000Y29400000D01*
X60022500Y26171250D02*
X98271250Y26171250D01*
X193000000Y29350000D02*
X193000000Y26242500D01*
X60000000Y26193750D02*
X60000000Y29400000D01*
X98000000Y26193750D02*
X98000000Y29400000D01*
X193000000Y26242500D02*
X192928750Y26171250D01*
X41022500Y26171250D02*
X60271250Y26171250D01*
X137100000Y29500000D02*
X137063000Y43262000D01*
X137063000Y43262000D02*
X125889900Y43262000D01*
%TO.N,Net-(D26-Pad2)*%
X39377500Y27878750D02*
X30570000Y27878750D01*
X40990000Y32728750D02*
X40990000Y31091250D01*
X40972500Y32841250D02*
X40972500Y38378750D01*
X39377500Y31078750D02*
X39377500Y27878750D01*
X40972500Y38378750D02*
X39370000Y38378750D01*
X40977500Y31078750D02*
X39377500Y31078750D01*
%TO.N,Net-(D27-Pad2)*%
X59967500Y32841250D02*
X59967500Y38378750D01*
X59967500Y38378750D02*
X58365000Y38378750D01*
X59972500Y31078750D02*
X58372500Y31078750D01*
X58372500Y31078750D02*
X58372500Y27878750D01*
X58372500Y27878750D02*
X49565000Y27878750D01*
X59985000Y32728750D02*
X59985000Y31091250D01*
%TO.N,Net-(D28-Pad2)*%
X78967500Y38378750D02*
X77365000Y38378750D01*
X78967500Y32841250D02*
X78967500Y38378750D01*
X78985000Y32728750D02*
X78985000Y31091250D01*
X77372500Y27878750D02*
X68565000Y27878750D01*
X78972500Y31078750D02*
X77372500Y31078750D01*
X77372500Y31078750D02*
X77372500Y27878750D01*
%TO.N,Net-(D29-Pad2)*%
X97985000Y32728750D02*
X97985000Y31091250D01*
X97972500Y31078750D02*
X96372500Y31078750D01*
X97967500Y38378750D02*
X96365000Y38378750D01*
X96372500Y27878750D02*
X87565000Y27878750D01*
X96372500Y31078750D02*
X96372500Y27878750D01*
X97967500Y32841250D02*
X97967500Y38378750D01*
%TO.N,Net-(D30-Pad2)*%
X116985000Y32728750D02*
X116985000Y31091250D01*
X115372500Y27878750D02*
X106565000Y27878750D01*
X116967500Y38378750D02*
X115365000Y38378750D01*
X116972500Y31078750D02*
X115372500Y31078750D01*
X116967500Y32841250D02*
X116967500Y38378750D01*
X115372500Y31078750D02*
X115372500Y27878750D01*
%TO.N,Net-(D31-Pad2)*%
X134372500Y27878750D02*
X125565000Y27878750D01*
X135967500Y38378750D02*
X134365000Y38378750D01*
X135972500Y31078750D02*
X134372500Y31078750D01*
X135985000Y32728750D02*
X135985000Y31091250D01*
X134372500Y31078750D02*
X134372500Y27878750D01*
X135967500Y32841250D02*
X135967500Y38378750D01*
%TO.N,Net-(D32-Pad2)*%
X154967500Y38378750D02*
X153365000Y38378750D01*
X153352500Y31128750D02*
X153352500Y27928750D01*
X154965000Y32778750D02*
X154965000Y31141250D01*
X154967500Y32841250D02*
X154967500Y38378750D01*
X154952500Y31128750D02*
X153352500Y31128750D01*
X153352500Y27928750D02*
X144545000Y27928750D01*
%TO.N,Net-(D33-Pad2)*%
X173865000Y32778750D02*
X173865000Y31141250D01*
X173852500Y31128750D02*
X172252500Y31128750D01*
X172252500Y27928750D02*
X163445000Y27928750D01*
X172252500Y31128750D02*
X172252500Y27928750D01*
X173967500Y38378750D02*
X172365000Y38378750D01*
X173967500Y32841250D02*
X173967500Y38378750D01*
%TO.N,Net-(D34-Pad2)*%
X191352500Y31128750D02*
X191352500Y27928750D01*
X192952500Y31128750D02*
X191352500Y31128750D01*
X192967500Y32841250D02*
X192967500Y38378750D01*
X192965000Y32778750D02*
X192965000Y31141250D01*
X192967500Y38378750D02*
X191365000Y38378750D01*
X191352500Y27928750D02*
X182545000Y27928750D01*
%TO.N,Net-(D35-Pad2)*%
X211967500Y38378750D02*
X210365000Y38378750D01*
X210372500Y31078750D02*
X210372500Y27878750D01*
X211985000Y32728750D02*
X211985000Y31091250D01*
X211972500Y31078750D02*
X210372500Y31078750D01*
X210372500Y27878750D02*
X201565000Y27878750D01*
X211967500Y32841250D02*
X211967500Y38378750D01*
%TO.N,Net-(D36-Pad2)*%
X230965000Y32841250D02*
X230965000Y38378750D01*
X229365000Y31078750D02*
X229365000Y27878750D01*
X230965000Y31078750D02*
X229365000Y31078750D01*
X230977500Y31091250D02*
X230965000Y31078750D01*
X230977500Y32728750D02*
X230977500Y31091250D01*
X229365000Y27878750D02*
X220557500Y27878750D01*
X230965000Y38378750D02*
X229362500Y38378750D01*
%TO.N,Net-(D37-Pad2)*%
X21972500Y13841250D02*
X21972500Y19378750D01*
X20377500Y8878750D02*
X11570000Y8878750D01*
X21990000Y13728750D02*
X21990000Y12091250D01*
X21977500Y12078750D02*
X20377500Y12078750D01*
X20377500Y12078750D02*
X20377500Y8878750D01*
X21972500Y19378750D02*
X20370000Y19378750D01*
%TO.N,/ROW3*%
X212000000Y7150000D02*
X212000000Y10300000D01*
X117000000Y7150000D02*
X117000000Y10300000D01*
X159650000Y8000000D02*
X159650000Y7150000D01*
X83650000Y8000000D02*
X83650000Y7150000D01*
X212248750Y7150000D02*
X193000000Y7150000D01*
X41000000Y7150000D02*
X41000000Y10300000D01*
X60000000Y10300000D02*
X60000000Y7150000D01*
X174000000Y7150000D02*
X174000000Y10300000D01*
X118000011Y25099989D02*
X118000000Y25100000D01*
X60248750Y7150000D02*
X41000000Y7150000D01*
X155000000Y8000000D02*
X159650000Y8000000D01*
X159650000Y7150000D02*
X174000000Y7150000D01*
X231000000Y10350000D02*
X231000000Y7150000D01*
X98000000Y7150000D02*
X83650000Y7150000D01*
X231000000Y7150000D02*
X212000000Y7150000D01*
X41248750Y7150000D02*
X22000000Y7150000D01*
X118000011Y10400011D02*
X118000011Y25099989D01*
X154000000Y7150000D02*
X154000000Y8000000D01*
X60000000Y7150000D02*
X78000000Y7150000D01*
X98000000Y7150000D02*
X98000000Y10300000D01*
X78000000Y7150000D02*
X78000000Y8000000D01*
X193000000Y7150000D02*
X193000000Y10300000D01*
X155000000Y8000000D02*
X155000000Y10300000D01*
X136248750Y7150000D02*
X117000000Y7150000D01*
X154000000Y8000000D02*
X155000000Y8000000D01*
X22000000Y7150000D02*
X22000000Y10300000D01*
X117248750Y7150000D02*
X98000000Y7150000D01*
X154000000Y7150000D02*
X136000000Y7150000D01*
X78000000Y8000000D02*
X79000000Y8000000D01*
X79000000Y8000000D02*
X79000000Y10300000D01*
X136000000Y7150000D02*
X136000000Y10300000D01*
X117000000Y10350000D02*
X117950000Y10350000D01*
X79000000Y8000000D02*
X83650000Y8000000D01*
X193248750Y7150000D02*
X174000000Y7150000D01*
%TO.N,Net-(D38-Pad2)*%
X40972500Y13841250D02*
X40972500Y19378750D01*
X40977500Y12078750D02*
X39377500Y12078750D01*
X39377500Y12078750D02*
X39377500Y8878750D01*
X39377500Y8878750D02*
X30570000Y8878750D01*
X40972500Y19378750D02*
X39370000Y19378750D01*
X40990000Y13728750D02*
X40990000Y12091250D01*
%TO.N,Net-(D39-Pad2)*%
X58372500Y8878750D02*
X49565000Y8878750D01*
X59967500Y19378750D02*
X58365000Y19378750D01*
X59967500Y13841250D02*
X59967500Y19378750D01*
X59985000Y13728750D02*
X59985000Y12091250D01*
X58372500Y12078750D02*
X58372500Y8878750D01*
X59972500Y12078750D02*
X58372500Y12078750D01*
%TO.N,Net-(D40-Pad2)*%
X77372500Y12078750D02*
X77372500Y8878750D01*
X78967500Y19378750D02*
X77365000Y19378750D01*
X78967500Y13841250D02*
X78967500Y19378750D01*
X77372500Y8878750D02*
X68565000Y8878750D01*
X78985000Y13728750D02*
X78985000Y12091250D01*
X78972500Y12078750D02*
X77372500Y12078750D01*
%TO.N,Net-(D41-Pad2)*%
X97972500Y12078750D02*
X96372500Y12078750D01*
X97985000Y13728750D02*
X97985000Y12091250D01*
X96372500Y8878750D02*
X87565000Y8878750D01*
X97967500Y19378750D02*
X96365000Y19378750D01*
X96372500Y12078750D02*
X96372500Y8878750D01*
X97967500Y13841250D02*
X97967500Y19378750D01*
%TO.N,Net-(D42-Pad2)*%
X116972500Y12078750D02*
X115372500Y12078750D01*
X116967500Y13841250D02*
X116967500Y19378750D01*
X116985000Y13728750D02*
X116985000Y12091250D01*
X116967500Y19378750D02*
X115365000Y19378750D01*
X115372500Y12078750D02*
X115372500Y8878750D01*
X115372500Y8878750D02*
X106565000Y8878750D01*
%TO.N,Net-(D43-Pad2)*%
X135985000Y13728750D02*
X135985000Y12091250D01*
X134372500Y8878750D02*
X125565000Y8878750D01*
X135967500Y13841250D02*
X135967500Y19378750D01*
X135967500Y19378750D02*
X134365000Y19378750D01*
X134372500Y12078750D02*
X134372500Y8878750D01*
X135972500Y12078750D02*
X134372500Y12078750D01*
%TO.N,Net-(D44-Pad2)*%
X153352500Y12128750D02*
X153352500Y8928750D01*
X154952500Y12128750D02*
X153352500Y12128750D01*
X154967500Y13841250D02*
X154967500Y19378750D01*
X154965000Y13778750D02*
X154965000Y12141250D01*
X153352500Y8928750D02*
X144545000Y8928750D01*
X154967500Y19378750D02*
X153365000Y19378750D01*
%TO.N,Net-(D45-Pad2)*%
X173967500Y19378750D02*
X172365000Y19378750D01*
X173865000Y13778750D02*
X173865000Y12141250D01*
X173852500Y12128750D02*
X172252500Y12128750D01*
X173967500Y13841250D02*
X173967500Y19378750D01*
X172252500Y12128750D02*
X172252500Y8928750D01*
X172252500Y8928750D02*
X163445000Y8928750D01*
%TO.N,Net-(D46-Pad2)*%
X192967500Y13841250D02*
X192967500Y19378750D01*
X192965000Y13778750D02*
X192965000Y12141250D01*
X191352500Y12128750D02*
X191352500Y8928750D01*
X191352500Y8928750D02*
X182545000Y8928750D01*
X192952500Y12128750D02*
X191352500Y12128750D01*
X192967500Y19378750D02*
X191365000Y19378750D01*
%TO.N,Net-(D47-Pad2)*%
X211972500Y12078750D02*
X210372500Y12078750D01*
X211967500Y19378750D02*
X210365000Y19378750D01*
X210372500Y12078750D02*
X210372500Y8878750D01*
X211967500Y13841250D02*
X211967500Y19378750D01*
X210372500Y8878750D02*
X201565000Y8878750D01*
X211985000Y13728750D02*
X211985000Y12091250D01*
%TO.N,Net-(D48-Pad2)*%
X229365000Y12078750D02*
X229365000Y8878750D01*
X230965000Y13841250D02*
X230965000Y19378750D01*
X230977500Y13728750D02*
X230977500Y12091250D01*
X230977500Y12091250D02*
X230965000Y12078750D01*
X230965000Y12078750D02*
X229365000Y12078750D01*
X230965000Y19378750D02*
X229362500Y19378750D01*
X229365000Y8878750D02*
X220557500Y8878750D01*
%TO.N,/COL0*%
X17770000Y30578750D02*
X6407500Y30578750D01*
X6400000Y68586250D02*
X6400000Y73658750D01*
X6400000Y49586250D02*
X6400000Y54658750D01*
X17770000Y68578750D02*
X6407500Y68578750D01*
X108690000Y58510000D02*
X108700000Y58500000D01*
X110647900Y58500000D02*
X110649900Y58502000D01*
X17770000Y49578750D02*
X6407500Y49578750D01*
X6400000Y11586250D02*
X6400000Y16658750D01*
X108690000Y63440000D02*
X108690000Y58510000D01*
X6440000Y54540000D02*
X6440000Y63440000D01*
X6400000Y30586250D02*
X6400000Y35658750D01*
X108700000Y58500000D02*
X110647900Y58500000D01*
X17770000Y11578750D02*
X6407500Y11578750D01*
X6440000Y63440000D02*
X108690000Y63440000D01*
%TO.N,/COL1*%
X36770000Y68578750D02*
X25407500Y68578750D01*
X25440000Y54540000D02*
X25440000Y62839980D01*
X36770000Y30578750D02*
X25407500Y30578750D01*
X108013000Y55962000D02*
X110649900Y55962000D01*
X108000000Y62839980D02*
X108000000Y55975000D01*
X25400000Y68586250D02*
X25400000Y73658750D01*
X108000000Y55975000D02*
X108013000Y55962000D01*
X25400000Y11586250D02*
X25400000Y16658750D01*
X25440000Y62839980D02*
X108000000Y62839980D01*
X25400000Y49586250D02*
X25400000Y54658750D01*
X25400000Y30586250D02*
X25400000Y35658750D01*
X36770000Y49578750D02*
X25407500Y49578750D01*
X36770000Y11578750D02*
X25407500Y11578750D01*
%TO.N,/COL2*%
X107399980Y54399980D02*
X107400000Y54399960D01*
X107400000Y54399960D02*
X107400000Y53425000D01*
X44395000Y68586250D02*
X44395000Y73658750D01*
X110646900Y53425000D02*
X110649900Y53422000D01*
X55765000Y68578750D02*
X44402500Y68578750D01*
X44395000Y11586250D02*
X44395000Y16658750D01*
X55765000Y30578750D02*
X44402500Y30578750D01*
X55765000Y49578750D02*
X44402500Y49578750D01*
X107399980Y54399980D02*
X107399980Y54350020D01*
X55765000Y11578750D02*
X44402500Y11578750D01*
X107399980Y62239960D02*
X107399980Y54399980D01*
X44440000Y54540000D02*
X44440000Y62239960D01*
X44395000Y30586250D02*
X44395000Y35658750D01*
X107400000Y53425000D02*
X110646900Y53425000D01*
X44395000Y49586250D02*
X44395000Y54658750D01*
X44440000Y62239960D02*
X107399980Y62239960D01*
%TO.N,/COL3*%
X63440000Y61639940D02*
X106799960Y61639940D01*
X63440000Y54540000D02*
X63440000Y61639940D01*
X106800000Y50875000D02*
X106807000Y50882000D01*
X63395000Y30586250D02*
X63395000Y35658750D01*
X63395000Y68586250D02*
X63395000Y73658750D01*
X74765000Y30578750D02*
X63402500Y30578750D01*
X74765000Y49578750D02*
X63402500Y49578750D01*
X63395000Y49586250D02*
X63395000Y54658750D01*
X63395000Y11586250D02*
X63395000Y16658750D01*
X74765000Y68578750D02*
X63402500Y68578750D01*
X106799960Y50875040D02*
X106800000Y50875000D01*
X74765000Y11578750D02*
X63402500Y11578750D01*
X106799960Y61639940D02*
X106799960Y50875040D01*
X106807000Y50882000D02*
X110649900Y50882000D01*
%TO.N,/COL4*%
X93765000Y11578750D02*
X82402500Y11578750D01*
X110641900Y48350000D02*
X110649900Y48342000D01*
X106199940Y48350000D02*
X110641900Y48350000D01*
X82395000Y68586250D02*
X82395000Y73658750D01*
X82440000Y61039920D02*
X106199940Y61039920D01*
X93765000Y49578750D02*
X82402500Y49578750D01*
X82440000Y54540000D02*
X82440000Y61039920D01*
X106199940Y61039920D02*
X106199940Y48350000D01*
X93765000Y30578750D02*
X82402500Y30578750D01*
X93765000Y68578750D02*
X82402500Y68578750D01*
X82395000Y11586250D02*
X82395000Y16658750D01*
X82395000Y30586250D02*
X82395000Y35658750D01*
X82395000Y49586250D02*
X82395000Y54658750D01*
%TO.N,/COL5*%
X112765000Y11578750D02*
X101402500Y11578750D01*
X101440000Y44540000D02*
X101449980Y44549980D01*
X108849980Y44549980D02*
X108849980Y45775000D01*
X112765000Y30578750D02*
X101402500Y30578750D01*
X108849980Y45775000D02*
X110850000Y45775000D01*
X101440000Y35540000D02*
X101440000Y44540000D01*
X101395000Y30586250D02*
X101395000Y35658750D01*
X101449980Y44549980D02*
X108849980Y44549980D01*
X110850000Y46600000D02*
X110880000Y46570000D01*
X101395000Y11586250D02*
X101395000Y16658750D01*
%TO.N,/COL6*%
X120395000Y30586250D02*
X120395000Y35658750D01*
X120440000Y35540000D02*
X120400000Y35580000D01*
X120427000Y45802000D02*
X125889900Y45802000D01*
X120400000Y35580000D02*
X120400000Y45775000D01*
X120395000Y11586250D02*
X120395000Y16658750D01*
X131765000Y11578750D02*
X120402500Y11578750D01*
X131765000Y30578750D02*
X120402500Y30578750D01*
X120400000Y45775000D02*
X120427000Y45802000D01*
%TO.N,/COL7*%
X150765000Y49578750D02*
X139402500Y49578750D01*
X150765000Y11578750D02*
X139402500Y11578750D01*
X139440000Y54540000D02*
X139440000Y60159920D01*
X150765000Y30578750D02*
X139402500Y30578750D01*
X150765000Y68578750D02*
X139402500Y68578750D01*
X131100019Y51451463D02*
X131100000Y51451444D01*
X125889900Y48879900D02*
X126120000Y49110000D01*
X131100000Y51451444D02*
X131100000Y48350000D01*
X125897900Y48350000D02*
X125889900Y48342000D01*
X139395000Y11586250D02*
X139395000Y16658750D01*
X139395000Y49586250D02*
X139395000Y54658750D01*
X139440000Y60159920D02*
X131100020Y60159920D01*
X139395000Y68586250D02*
X139395000Y73658750D01*
X139395000Y30586250D02*
X139395000Y35658750D01*
X131100020Y60159920D02*
X131100019Y51451463D01*
X131100000Y48350000D02*
X125897900Y48350000D01*
X125889900Y48342000D02*
X125889900Y48879900D01*
%TO.N,/COL8*%
X158440000Y60759940D02*
X130500000Y60759940D01*
X126120000Y50950000D02*
X126120000Y51650000D01*
X169765000Y68578750D02*
X158402500Y68578750D01*
X130500000Y60759940D02*
X130500000Y50950000D01*
X158395000Y68586250D02*
X158395000Y73658750D01*
X169765000Y49578750D02*
X158402500Y49578750D01*
X169765000Y11578750D02*
X158402500Y11578750D01*
X158395000Y11586250D02*
X158395000Y16658750D01*
X158395000Y49586250D02*
X158395000Y54658750D01*
X169765000Y30578750D02*
X158402500Y30578750D01*
X158395000Y30586250D02*
X158395000Y35658750D01*
X130500000Y50950000D02*
X126120000Y50950000D01*
X158440000Y54540000D02*
X158440000Y60759940D01*
%TO.N,/COL9*%
X177395000Y68586250D02*
X177395000Y73658750D01*
X188765000Y30578750D02*
X177402500Y30578750D01*
X177395000Y49586250D02*
X177395000Y54658750D01*
X188765000Y68578750D02*
X177402500Y68578750D01*
X177395000Y11586250D02*
X177395000Y16658750D01*
X188765000Y11578750D02*
X177402500Y11578750D01*
X129860040Y53422000D02*
X126120000Y53422000D01*
X188765000Y49578750D02*
X177402500Y49578750D01*
X177440000Y54540000D02*
X177440000Y61359960D01*
X177440000Y61359960D02*
X129860040Y61359960D01*
X177395000Y30586250D02*
X177395000Y35658750D01*
X129860040Y61359960D02*
X129860040Y53422000D01*
%TO.N,/COL10*%
X129260020Y61959980D02*
X129260020Y55975000D01*
X126120000Y55975000D02*
X126120000Y56730000D01*
X196440000Y61959980D02*
X129260020Y61959980D01*
X196395000Y49586250D02*
X196395000Y54658750D01*
X196440000Y54540000D02*
X196440000Y61959980D01*
X207765000Y11578750D02*
X196402500Y11578750D01*
X196395000Y68586250D02*
X196395000Y73658750D01*
X196395000Y30586250D02*
X196395000Y35658750D01*
X196395000Y11586250D02*
X196395000Y16658750D01*
X207765000Y30578750D02*
X196402500Y30578750D01*
X129260020Y55975000D02*
X126120000Y55975000D01*
X207765000Y49578750D02*
X196402500Y49578750D01*
X207765000Y68578750D02*
X196402500Y68578750D01*
%TO.N,/COL11*%
X226787500Y11538750D02*
X215425000Y11538750D01*
X126120000Y58525000D02*
X126120000Y59270000D01*
X215417500Y49546250D02*
X215417500Y54618750D01*
X226787500Y68538750D02*
X215425000Y68538750D01*
X226787500Y49538750D02*
X215425000Y49538750D01*
X215417500Y68546250D02*
X215417500Y73618750D01*
X215440000Y62560000D02*
X128660000Y62560000D01*
X215440000Y54540000D02*
X215440000Y62560000D01*
X226787500Y30538750D02*
X215425000Y30538750D01*
X128660000Y62560000D02*
X128660000Y58525000D01*
X128660000Y58525000D02*
X126120000Y58525000D01*
X215417500Y11546250D02*
X215417500Y16618750D01*
X215417500Y30546250D02*
X215417500Y35618750D01*
%TD*%
M02*
